<?xml version="1.0" encoding="UTF-8"?>
<svg version="1.1" xmlns="http://www.w3.org/2000/svg" width="1024" height="1024">
<path d="M0 0 C337.92 0 675.84 0 1024 0 C1024 337.92 1024 675.84 1024 1024 C686.08 1024 348.16 1024 0 1024 C0 686.08 0 348.16 0 0 Z " fill="#FBFCFC" transform="translate(0,0)"/>
<path d="M0 0 C0.80611725 -0.00181274 1.6122345 -0.00362549 2.44277954 -0.00549316 C13.371124 -0.00271648 23.94021567 0.7453371 34.75 2.375 C36.36104614 2.59845093 36.36104614 2.59845093 38.00463867 2.82641602 C45.02340945 3.87347761 51.60007375 5.65298833 58.3125 7.9375 C59.34463623 8.28683594 60.37677246 8.63617188 61.44018555 8.99609375 C75.57319849 13.90851609 89.17760285 19.71570579 100.75 29.375 C101.59691406 30.04917969 102.44382813 30.72335938 103.31640625 31.41796875 C111.51023403 38.2857725 118.75239928 46.96146 121.75 57.375 C122.89855469 56.97667969 124.04710937 56.57835937 125.23046875 56.16796875 C145.34759821 49.27017017 164.59317743 45.96542134 185.8125 46.0625 C187.02664581 46.06473572 187.02664581 46.06473572 188.26531982 46.0670166 C201.31389869 46.11007804 213.90782226 46.95128778 226.75 49.375 C228.2471847 49.62237501 229.74457882 49.86848613 231.2421875 50.11328125 C264.97422411 56.04140897 301.66605331 70.48552696 326.75 94.375 C326.75 95.035 326.75 95.695 326.75 96.375 C327.41 96.375 328.07 96.375 328.75 96.375 C338.73915302 106.71646754 345.54062407 119.09109137 350.75 132.375 C352.28412793 135.68871632 353.69525672 138.30461579 355.9375 141.1875 C358.27842685 145.3043024 358.3469312 148.72676521 357.75 153.375 C357.42 153.705 357.09 154.035 356.75 154.375 C356.66241997 156.37464982 356.64303424 158.3773611 356.65234375 160.37890625 C356.65717773 162.20131836 356.65717773 162.20131836 356.66210938 164.06054688 C356.67048828 165.33994141 356.67886719 166.61933594 356.6875 167.9375 C356.69426758 169.86239258 356.69426758 169.86239258 356.70117188 171.82617188 C356.71300455 175.00916022 356.72948932 178.19205762 356.75 181.375 C357.66136719 181.51292969 358.57273437 181.65085937 359.51171875 181.79296875 C372.01398443 184.04005872 383.57061512 191.07212826 393.75 198.375 C395.19826172 199.40560547 395.19826172 199.40560547 396.67578125 200.45703125 C409.3265925 210.10170914 420.70690037 224.99678799 424.55859375 240.6640625 C425.54918512 243.65242212 425.54918512 243.65242212 428.71875 245.0546875 C429.8840625 245.44914063 431.049375 245.84359375 432.25 246.25 C433.99796875 246.86488281 433.99796875 246.86488281 435.78125 247.4921875 C438.55330089 248.47001097 438.55330089 248.47001097 440.75 248.375 C441.0903125 247.45460938 441.430625 246.53421875 441.78125 245.5859375 C454.18837722 212.83059776 477.35744732 188.20685333 507.75 171.375 C508.69117676 170.85292969 508.69117676 170.85292969 509.65136719 170.3203125 C525.71365682 161.55157152 542.87049687 156.04354054 560.75 152.375 C561.77738281 152.16101563 562.80476562 151.94703125 563.86328125 151.7265625 C575.24971626 149.50403346 586.6108323 149.16912218 598.1875 149.1875 C599.24638428 149.18840637 599.24638428 149.18840637 600.32666016 149.18933105 C611.90996226 149.21615031 623.27572471 149.73161975 634.75 151.375 C635.66587891 151.49858887 636.58175781 151.62217773 637.52539062 151.74951172 C653.05795679 153.88666434 667.85719708 157.4961516 682.75 162.375 C683.69649414 162.68453613 684.64298828 162.99407227 685.61816406 163.31298828 C710.54331762 171.60845821 736.89695712 183.51152771 754 204.25 C757.44543095 208.3349541 761.51676922 211.40875511 765.76928711 214.58886719 C771.05223066 218.55050565 775.94484225 222.84418516 780.75 227.375 C781.74386719 228.28958984 781.74386719 228.28958984 782.7578125 229.22265625 C814.33500598 259.32965651 843.86470541 314.63205372 845.125 358.5 C845.1654161 363.90228513 845.1654161 363.90228513 843.1640625 366.1796875 C840.84532519 369.77949514 842.04968657 373.35880861 842.75 377.375 C843.06710937 379.28732422 843.06710937 379.28732422 843.390625 381.23828125 C844.15292536 385.78813133 844.94973261 390.33169794 845.75 394.875 C849.91610817 418.52695448 849.91610817 418.52695448 850 430.125 C850.0309375 431.21748047 850.0309375 431.21748047 850.0625 432.33203125 C850.0950017 436.80914025 849.81664974 439.98835203 846.75 443.375 C844.3046875 444.00390625 844.3046875 444.00390625 841.75 443.375 C839.7578125 441.21484375 839.7578125 441.21484375 837.875 438.3125 C828.21719591 424.2925279 816.24949913 417.75857975 799.75 414.375 C794.41651031 413.47108834 789.30248386 413.22830142 783.9140625 413.2421875 C783.07644379 413.24123077 782.23882507 413.24027405 781.37582397 413.23928833 C779.60585454 413.2386105 777.83588257 413.24043697 776.06591797 413.24462891 C773.41758303 413.249915 770.769423 413.24470564 768.12109375 413.23828125 C766.3854163 413.23894341 764.64973896 413.2402274 762.9140625 413.2421875 C762.14881256 413.24016327 761.38356262 413.23813904 760.59512329 413.23605347 C755.33463822 413.2573957 750.10835031 413.52794796 744.86010742 413.8684082 C735.1822817 414.48061464 725.51898494 414.57615353 715.82421875 414.61328125 C714.44372817 414.61939454 714.44372817 414.61939454 713.03534889 414.62563133 C708.15955473 414.64630559 703.28378712 414.66068395 698.40795898 414.67016602 C694.4471888 414.67898877 690.48677365 414.69980227 686.52612305 414.73168945 C637.81615184 415.11539733 637.81615184 415.11539733 615.75 409.375 C616.7090625 410.303125 616.7090625 410.303125 617.6875 411.25 C662.35654652 456.16720789 662.35654652 456.16720789 664.04296875 478.203125 C664.58753226 483.18932105 667.0518732 486.24615756 670.0625 490.125 C679.31680574 502.64880767 687.08025608 516.00499741 694.375 529.75 C694.7889502 530.52843262 695.20290039 531.30686523 695.62939453 532.10888672 C698.53460573 537.68811547 701.06988124 542.8189191 700.875 549.25 C700.85695313 550.03117188 700.83890625 550.81234375 700.8203125 551.6171875 C700.78550781 552.48730469 700.78550781 552.48730469 700.75 553.375 C701.905 553.436875 703.06 553.49875 704.25 553.5625 C710.15840728 554.29711547 714.70945422 557.20692011 718.75 561.5 C719.75 563.375 719.75 563.375 719.75 566.375 C720.65492188 566.43107422 720.65492188 566.43107422 721.578125 566.48828125 C729.79613667 567.16427898 729.79613667 567.16427898 732.75 570.375 C732.75 571.035 732.75 571.695 732.75 572.375 C733.41 572.045 734.07 571.715 734.75 571.375 C738.2049738 571.24211639 741.18602357 571.22233878 744.53515625 572.12890625 C748.87041088 572.46076657 751.39734809 570.65112699 754.9375 568.4375 C760.45344479 565.26082777 764.95239579 563.15560469 771.5 563.73046875 C774.40658841 564.56308522 776.28653388 565.92875373 777.97265625 568.4609375 C779.1486589 571.35662241 779.27296723 574.17490016 779.43359375 577.2734375 C779.89527851 580.33993629 781.83371832 582.01158593 783.75 584.375 C783.56842617 587.46175512 783.12817818 589.61864365 781.75 592.375 C781.09 592.375 780.43 592.375 779.75 592.375 C779.29625 591.570625 778.8425 590.76625 778.375 589.9375 C777.02519786 587.29998202 777.02519786 587.29998202 774.890625 586.5078125 C772.64892554 586.14435998 772.64892554 586.14435998 770.8203125 587.73828125 C770.17835938 588.38152344 769.53640625 589.02476562 768.875 589.6875 C764.45922235 593.79311213 761.06818493 595.09996111 755.0625 595.8125 C751.78027665 596.02212984 751.78027665 596.02212984 750.3125 597.9375 C748.01982373 600.04676217 745.75324192 599.78240745 742.7578125 599.671875 C739.88877021 599.24765863 737.98388315 598.19003006 735.75 596.375 C735.75 595.715 735.75 595.055 735.75 594.375 C735.255 594.54 734.76 594.705 734.25 594.875 C729.64722263 595.79555547 725.80593988 596.48490958 721.59375 594.2109375 C717.72889845 591.39882537 714.41896157 588.37844236 711.75 584.375 C711.75 583.715 711.75 583.055 711.75 582.375 C710.71230469 582.15070312 709.67460938 581.92640625 708.60546875 581.6953125 C704.45444699 580.50214189 702.08820482 578.3490814 699.0625 575.25 C698.58264648 574.76007568 698.10279297 574.27015137 697.60839844 573.76538086 C694.99790647 571.00961169 693.01298688 568.4154049 691.5 564.9375 C689.6095491 561.08908209 688.38157986 560.4264353 684.65991211 558.59399414 C676.80774412 553.58237778 672.19329505 543.26275799 667.9375 535.3125 C662.64939263 525.65320353 657.09184405 516.32357419 650.94335938 507.19140625 C649.78229467 505.42415555 648.68853534 503.63067258 647.609375 501.8125 C643.51182857 495.10155781 640.37230021 491.54905814 632.75 489.375 C630.74904694 488.71119934 628.74885157 488.0451021 626.75 487.375 C626.44707031 488.20902344 626.14414062 489.04304688 625.83203125 489.90234375 C623.8463444 495.23620411 621.92218491 500.32672742 618.9375 505.1875 C616.4065094 509.49573792 616.23802276 512.42588673 616.75 517.375 C617.08 518.365 617.41 519.355 617.75 520.375 C614.21239829 518.93375486 612.56752419 517.2073248 610.4375 514.0625 C609.90511719 513.30324219 609.37273438 512.54398438 608.82421875 511.76171875 C607.44651632 508.70071444 607.6855569 507.54006975 608.75 504.375 C609.8477333 502.12175797 610.99891421 499.89416759 612.1875 497.6875 C615.14826742 492.03505788 617.03223916 486.73231028 617.75 480.375 C616.80125 479.67375 615.8525 478.9725 614.875 478.25 C592.37153691 458.52032362 579.72047485 421.75750742 566.75 395.375 C562.50731872 397.00288514 558.78330747 399.10327131 554.9375 401.5 C538.58056965 411.44708226 522.68940022 418.30389635 503.71459961 421.27587891 C498.66985234 422.09987198 494.25754751 423.45424184 489.6328125 425.60546875 C487.75 426.375 487.75 426.375 484.75 426.375 C487.72 424.395 490.69 422.415 493.75 420.375 C492.64205078 419.9728125 492.64205078 419.9728125 491.51171875 419.5625 C483.6417835 416.52252501 477.31897078 412.64052146 470.75 407.375 C470.04488281 406.81167969 469.33976563 406.24835938 468.61328125 405.66796875 C464.09934063 401.93000954 464.09934063 401.93000954 462.484375 399.36425781 C460.27919309 396.83500356 458.83548236 396.63507517 455.5625 396.125 C454.66144531 395.97546875 453.76039063 395.8259375 452.83203125 395.671875 C451.80142578 395.52492188 451.80142578 395.52492188 450.75 395.375 C450.76047363 396.35146484 450.77094727 397.32792969 450.78173828 398.33398438 C450.81858794 402.03918631 450.84113055 405.74437299 450.85986328 409.44970703 C450.86977582 411.03795109 450.88330983 412.62617765 450.90087891 414.21435547 C451.06755848 429.69594632 449.47848154 444.31475956 445.98632812 459.43164062 C442.76591276 474.32160539 451.26296343 487.09302295 458.89453125 499.29296875 C461.63947403 503.85246318 462.3476466 507.0815587 461.75 512.375 C460.03828256 515.59856367 458.06221261 518.55038571 455.75 521.375 C455.42 521.375 455.09 521.375 454.75 521.375 C454.72421875 520.44558594 454.6984375 519.51617188 454.671875 518.55859375 C454.14847633 507.15088182 451.91469685 502.19080203 443.84765625 494.171875 C441.61367231 492.25822023 439.28365479 490.85921043 436.75 489.375 C437.01406779 496.32699956 437.28091637 503.27888868 437.54956055 510.23071289 C437.64034713 512.58811107 437.73053257 514.9455325 437.82006836 517.30297852 C438.42326785 533.45723733 438.42326785 533.45723733 439.30859375 549.59765625 C439.79026627 557.19327011 439.90324528 564.76512684 439.875 572.375 C439.87234131 573.69282471 439.86968262 575.01064941 439.86694336 576.3684082 C439.83360736 585.10461059 439.64718031 593.83238362 439.3125 602.5625 C439.27334473 603.60083984 439.23418945 604.63917969 439.19384766 605.70898438 C439.01586257 609.75422401 438.81028839 613.45825926 437.75 617.375 C436.82519774 622.92381357 438.23584185 625.45357016 441.25 630.1875 C444.24931276 635.04614282 445.76440895 638.57517626 445.3046875 644.3125 C444.75 646.375 444.75 646.375 442.625 648.875 C437.83032218 651.37657103 434.27538703 652.46502307 428.875 652.25 C423.72953351 652.17250803 419.75886508 653.01272606 415.75 656.375 C414.03149449 658.91877652 412.81086353 661.49950148 411.75 664.375 C410.52514188 661.92528376 410.58277192 660.23265539 410.5625 657.5 C410.54832031 656.63632812 410.53414062 655.77265625 410.51953125 654.8828125 C410.76140748 652.2508712 411.42016459 650.63519456 412.75 648.375 C411.925 648.33375 411.1 648.2925 410.25 648.25 C404.19456284 646.73614071 399.06104839 642.68668186 395.75 637.375 C394.70341121 632.5781347 395.26034811 629.17624854 397.8125 625 C401.75586776 621.47613945 405.30501962 619.375 410.75 619.375 C410.87375 618.59125 410.9975 617.8075 411.125 617 C411.75 614.375 411.75 614.375 413.75 612.375 C413.81307732 608.98234151 413.6152044 605.63363227 413.4296875 602.24609375 C413.72940217 598.62393236 414.10708057 597.46663756 415.73413086 594.44189453 C418.44441707 588.52041672 418.33470527 582.85607437 418.32421875 576.43359375 C418.34546562 574.57372581 418.34546562 574.57372581 418.36714172 572.67628479 C418.40885285 568.72160237 418.4242051 564.76737042 418.4375 560.8125 C418.47650767 555.64446707 418.52557719 550.47654367 418.57421875 545.30859375 C418.58413849 544.04719574 418.59405823 542.78579773 418.60427856 541.48617554 C418.7051145 530.57128077 419.11661406 519.6837559 419.64057922 508.78208923 C420.41371256 497.28733614 420.41371256 497.28733614 417.51757812 486.33007812 C414.4540098 478.52694355 415.50714928 468.61266801 415.5 460.375 C415.49932526 459.67280334 415.49865051 458.97060669 415.49795532 458.24713135 C415.53000457 437.07845511 418.55072112 416.88515235 423.75 396.375 C422.69425781 396.38853516 422.69425781 396.38853516 421.6171875 396.40234375 C410.41527245 396.06599382 401.28690327 391.60344333 392.75 384.375 C392.9665625 385.02726562 393.183125 385.67953125 393.40625 386.3515625 C396.40753425 395.77226027 396.40753425 395.77226027 395.75 400.375 C395.255 400.99375 394.76 401.6125 394.25 402.25 C392.31197306 404.99553817 392.77592927 406.96979517 392.87890625 410.22265625 C392.64164456 414.18420756 391.1358602 417.24523395 388.75 420.375 C379.8398427 428.16153127 368.97684288 427.90087608 357.75 427.375 C355.74421841 427.0784341 353.74110401 426.75790462 351.75 426.375 C351.78480469 427.00664063 351.81960938 427.63828125 351.85546875 428.2890625 C352.11656873 436.91779504 351.64627204 447.03059194 346.75 454.375 C346.29074445 456.24002559 345.87949429 458.11712449 345.5 460 C344.07929687 465.9424334 341.91024325 470.83840223 337.75 475.375 C336.42399137 476.05611919 335.09169951 476.72533497 333.75 477.375 C333.5025 478.1175 333.255 478.86 333 479.625 C331.05021135 483.91453504 327.95643207 486.323758 323.75 488.375 C320.99586212 488.72372537 318.51802451 488.70350267 315.75390625 488.48828125 C315.09261719 488.45089844 314.43132812 488.41351562 313.75 488.375 C313.42 488.705 313.09 489.035 312.75 489.375 C308.74779347 489.51855117 304.75558317 489.41716403 300.75 489.375 C301.41 493.995 302.07 498.615 302.75 503.375 C301.1 501.725 299.45 500.075 297.75 498.375 C296.6053125 497.2921875 296.6053125 497.2921875 295.4375 496.1875 C293.23379905 492.51466508 293.61762875 489.90765962 293.80859375 485.71875 C293.93889368 483.22430195 293.93889368 483.22430195 292.25 480.875 C289.86258067 476.89596778 290.11040369 472.89024535 290.75 468.375 C292.0625 465.75 292.0625 465.75 294.75 464.375 C301.42225823 463.6469197 308.12748719 464.50647373 314.75 465.375 C314.9975 464.488125 315.245 463.60125 315.5 462.6875 C317.33645349 457.82089826 319.35792145 455.18240556 323.875 452.5625 C326.75 451.375 326.75 451.375 328.75 451.375 C328.72679687 450.53839844 328.70359375 449.70179688 328.6796875 448.83984375 C328.52121045 438.61807418 329.01214898 428.29046043 331.75 418.375 C331.06808594 418.16230469 330.38617188 417.94960938 329.68359375 417.73046875 C325.82818211 415.94907349 322.99142402 413.46948625 319.8125 410.6875 C319.21759766 410.18283203 318.62269531 409.67816406 318.00976562 409.15820312 C313.83591531 405.54998935 310.22803165 401.65411992 306.75 397.375 C304.15691025 400.55856673 302.48523171 403.82599394 300.78125 407.5546875 C300.50464539 408.15539062 300.22804077 408.75609375 299.9430542 409.375 C299.35007417 410.66288303 298.75896229 411.95162757 298.16955566 413.2411499 C296.61089349 416.6461843 295.03190457 420.04175725 293.453125 423.4375 C292.97948517 424.4567305 292.97948517 424.4567305 292.49627686 425.49655151 C270.46090435 472.83219211 270.46090435 472.83219211 258.546875 480.859375 C256.56684819 482.21937055 256.56684819 482.21937055 256.2890625 484.43359375 C256.56188104 491.98570703 257.62317124 499.36226913 259.28125 506.73828125 C259.99593152 510.38728016 260.01344224 511.97529454 257.9375 515.125 C254.46893735 517.57339717 251.16435931 519.00290375 247.19921875 520.4609375 C244.2484059 521.5621978 241.53401538 522.90972875 238.75 524.375 C244.195 525.86 244.195 525.86 249.75 527.375 C249.75 527.705 249.75 528.035 249.75 528.375 C243.15 528.045 236.55 527.715 229.75 527.375 C230.08 526.385 230.41 525.395 230.75 524.375 C229.4815625 524.2203125 229.4815625 524.2203125 228.1875 524.0625 C224.33557299 523.2921146 221.30924969 522.01225486 217.75 520.375 C217.47236816 521.09719727 217.19473633 521.81939453 216.90869141 522.56347656 C214.97553736 527.25420602 212.52446526 531.65949394 210.125 536.125 C209.62871094 537.07632813 209.13242187 538.02765625 208.62109375 539.0078125 C205.13137279 545.48999137 201.22016247 551.37503873 195.75 556.375 C195.09 556.375 194.43 556.375 193.75 556.375 C193.8325 557.40625 193.915 558.4375 194 559.5 C193.59448259 565.78551989 190.34994489 568.97332622 185.875 573.0625 C182.06133199 576.26767924 178.36834377 579.17862422 173.25 579.5625 C170.20453404 580.55227644 169.69430125 581.55006304 167.875 584.125 C165.04540202 588.12819715 162.33049544 591.3947454 157.75 593.375 C153.46844582 593.98971396 149.84789557 593.74096519 145.75 592.375 C145.09 592.705 144.43 593.035 143.75 593.375 C135.26295424 594.24656531 129.40315509 593.01582745 122.703125 587.7734375 C121.01110382 586.34537163 119.36503031 584.88909092 117.75 583.375 C117.1725 584.138125 116.595 584.90125 116 585.6875 C114.03296907 588.03700917 112.26523256 589.66823505 109.75 591.375 C110.059375 592.2825 110.36875 593.19 110.6875 594.125 C111.4772263 596.54063338 112.17949297 598.90280285 112.75 601.375 C108.20924219 597.23489729 105.03157862 592.55109824 101.75 587.375 C103.20884803 583.6920066 105.01867645 582.35424041 108.3125 580.25 C111.8066697 577.70501896 111.8066697 577.70501896 113.421875 573.83984375 C113.51403629 572.10157947 113.57758659 570.36150919 113.609375 568.62109375 C113.75 566.375 113.75 566.375 115.3125 563.75 C118.74711982 561.81252215 121.92947248 561.91300629 125.75 562.375 C128.61093324 563.28939192 131.24962701 564.54263808 133.9375 565.875 C140.03576498 569.04449379 140.03576498 569.04449379 146.75 569.375 C149.44433317 567.50302546 149.44433317 567.50302546 151.75 565.375 C154.15545638 564.17227181 155.69996953 564.27428528 158.375 564.3125 C159.19226563 564.32152344 160.00953125 564.33054687 160.8515625 564.33984375 C161.79128906 564.35724609 161.79128906 564.35724609 162.75 564.375 C163.0284375 563.2921875 163.0284375 563.2921875 163.3125 562.1875 C165.24032722 558.41566414 167.96391719 556.25206637 171.75 554.375 C173.07 554.375 174.39 554.375 175.75 554.375 C175.66105469 552.86873047 175.66105469 552.86873047 175.5703125 551.33203125 C175.76488555 547.0471943 176.84595307 543.88437188 178.625 540.0625 C178.93671143 539.37591309 179.24842285 538.68932617 179.56958008 537.98193359 C186.79599497 522.40518994 195.62306045 507.04581181 206.21630859 493.5 C209.15357697 489.70891055 210.28886052 487.53238714 209.75 482.75 C209.09672893 465.78602545 222.71575073 449.03601609 232.75 436.375 C233.45769531 435.47394531 234.16539062 434.57289063 234.89453125 433.64453125 C247.47465525 417.93637642 261.37454911 404.2408094 277.4375 392.125 C278.32373047 391.4561377 279.20996094 390.78727539 280.12304688 390.09814453 C286.49316688 385.375 286.49316688 385.375 288.75 385.375 C288.75 384.715 288.75 384.055 288.75 383.375 C288.09257812 383.79910156 287.43515625 384.22320313 286.7578125 384.66015625 C265.99458238 397.46133471 242.35240578 403.28623366 218.16235352 397.98999023 C200.78891378 393.67276673 175.61032641 386.23532641 162.75 373.375 C160.64179203 373.6935177 160.64179203 373.6935177 158.75 374.375 C158.62262451 375.04547363 158.49524902 375.71594727 158.36401367 376.40673828 C156.44496332 385.23215136 153.02186786 392.95107637 149.12719727 401.03759766 C148.07014392 403.23411621 147.03090188 405.43837405 145.99414062 407.64453125 C123.85643792 454.39668123 123.85643792 454.39668123 101.75 464.375 C100.76 464.375 99.77 464.375 98.75 464.375 C98.79640625 465.04402344 98.8428125 465.71304687 98.890625 466.40234375 C99.13626139 472.93802634 98.47308453 478.95593315 97.0625 485.3125 C96.83965332 486.39422485 96.83965332 486.39422485 96.61230469 487.49780273 C95.44244809 492.40215751 93.81513846 495.1501085 89.75 498.375 C87.171875 499.6328125 87.171875 499.6328125 84.5 500.5 C83.54996094 500.81710937 82.59992188 501.13421875 81.62109375 501.4609375 C80.19990234 501.91339844 80.19990234 501.91339844 78.75 502.375 C77.02048856 502.95731033 75.29128759 503.54054417 73.5625 504.125 C72.2921859 504.54324702 71.02156277 504.96056473 69.75 505.375 C69.3828125 502.7265625 69.3828125 502.7265625 69.75 499.375 C71.67907396 497.22175231 73.409185 495.54496226 75.625 493.75 C81.47774829 489.16313033 81.47774829 489.16313033 83.98486328 482.47216797 C84.17025054 480.18942945 84.2839203 477.91337758 84.375 475.625 C84.43300781 474.43583984 84.43300781 474.43583984 84.4921875 473.22265625 C84.586108 471.27380584 84.66912822 469.32443549 84.75 467.375 C80.98723956 471.04198109 77.52127569 474.86846041 74.125 478.875 C73.60429932 479.48593506 73.08359863 480.09687012 72.54711914 480.72631836 C70.94553674 482.60706901 69.34726157 484.49057912 67.75 486.375 C67.27191895 486.93848145 66.79383789 487.50196289 66.30126953 488.08251953 C64.92922165 489.70017795 63.55809241 491.31860828 62.1875 492.9375 C61.74100098 493.4648877 61.29450195 493.99227539 60.83447266 494.53564453 C58.50191624 497.29383151 56.17755575 500.05848263 53.86328125 502.83203125 C38.02396509 521.7779907 38.02396509 521.7779907 28.3125 524.25 C24.28267624 525.52257592 21.86266827 527.40237732 18.58203125 529.98046875 C14.29262505 533.24553914 10.24007753 533.56521375 5.046875 534.0234375 C2.46377317 534.31754286 2.46377317 534.31754286 -0.8125 535.9375 C-7.06217405 538.54683438 -14.59298325 537.77106965 -21.25 537.375 C-21.91 537.045 -22.57 536.715 -23.25 536.375 C-25.28879443 536.08333111 -27.33113423 535.81620492 -29.375 535.5625 C-35.55374011 534.64662481 -41.32392531 533.44811362 -45.8046875 528.7421875 C-47.22130917 527.08029025 -47.22130917 527.08029025 -49.75 527.4375 C-52.82798754 528.59174533 -53.63647452 529.53212177 -55.25 532.375 C-55.97351427 534.35514432 -56.65265389 536.35321315 -57.25 538.375 C-57.91 538.375 -58.57 538.375 -59.25 538.375 C-59.30428973 536.14610504 -59.34292338 533.91682529 -59.375 531.6875 C-59.39820313 530.44613281 -59.42140625 529.20476563 -59.4453125 527.92578125 C-59.26032021 524.56262143 -58.70767895 522.3764413 -57.25 519.375 C-56.59 519.375 -55.93 519.375 -55.25 519.375 C-55.745 517.89 -55.745 517.89 -56.25 516.375 C-56.71608707 512.18021636 -56.67530092 510.0642808 -54.4375 506.4375 C-49.71304855 503.380502 -45.72510942 503.58235681 -40.25 504.375 C-35.24680694 505.72256489 -31.37609353 507.24719508 -27.6796875 510.94921875 C-23.34692828 514.67019706 -18.15709087 514.348545 -12.6875 514.5 C-11.65947266 514.56703125 -10.63144531 514.6340625 -9.57226562 514.703125 C-3.39961415 515.00938372 -3.39961415 515.00938372 1.77734375 511.9296875 C2.42832031 511.08664062 3.07929687 510.24359375 3.75 509.375 C6.42643957 508.48285348 8.00384378 508.23959789 10.75 508.25 C11.7709375 508.24613281 11.7709375 508.24613281 12.8125 508.2421875 C14.75 508.375 14.75 508.375 17.75 509.375 C18.00652344 508.64667969 18.26304687 507.91835938 18.52734375 507.16796875 C21.93472785 499.38432776 28.92658486 492.96003693 34.59765625 486.74609375 C36.51855377 484.62996889 38.38989432 482.48190731 40.25 480.3125 C43.50458725 476.56821791 47.00059444 473.10729042 50.53125 469.625 C53.29441252 466.8229197 55.87723701 463.89322348 58.4375 460.90625 C59.18125463 460.03853626 59.9418855 459.1831145 60.75 458.375 C60.99752536 456.89879453 61.22258378 455.41880429 61.4375 453.9375 C65.43428137 433.60854725 87.49215556 412.77994818 100.75 397.375 C101.36359375 396.65957031 101.9771875 395.94414063 102.609375 395.20703125 C128.95233103 364.78718917 128.95233103 364.78718917 139.75 360.375 C143 360.25 143 360.25 145.75 360.375 C145.70359375 359.79492188 145.6571875 359.21484375 145.609375 358.6171875 C145.34822305 352.96511326 145.85504143 349.78245312 149.75 345.375 C155.81332906 340.29872451 163.08002222 338.92026778 170.87426758 338.99560547 C176.84903743 339.78385509 182.49908109 342.1515036 188.13342285 344.21932983 C209.26881676 351.95376425 229.59942266 357.55120859 252.25 357.5625 C253.54292969 357.57474609 254.83585937 357.58699219 256.16796875 357.59960938 C262.38714902 357.60919701 267.90319491 357.60277363 273.75 355.375 C273.6675 354.3025 273.585 353.23 273.5 352.125 C273.75 348.375 273.75 348.375 275.125 346.0625 C279.0404646 343.54541562 283.19303354 343.03593407 287.75 342.375 C287.1209375 341.67117188 286.491875 340.96734375 285.84375 340.2421875 C279.34826406 332.74890101 274.36879807 325.15977281 269.75 316.375 C269.3478125 315.6428125 268.945625 314.910625 268.53125 314.15625 C267.75 312.375 267.75 312.375 267.75 309.375 C266.62722656 309.77332031 265.50445312 310.17164063 264.34765625 310.58203125 C262.83595277 311.11723062 261.32423315 311.65238442 259.8125 312.1875 C258.70938477 312.57905273 258.70938477 312.57905273 257.58398438 312.97851562 C256.07035387 313.51390458 254.55533094 314.04537039 253.0390625 314.57324219 C251.55553506 315.09285654 250.0760005 315.62407345 248.6015625 316.16894531 C242.38672508 318.39133971 236.13475156 319.48916901 229.625 320.5 C228.57957031 320.66886719 227.53414063 320.83773438 226.45703125 321.01171875 C223.55621228 321.47746339 220.6547346 321.93434674 217.75 322.375 C216.62529297 322.55442139 215.50058594 322.73384277 214.34179688 322.91870117 C210.74546559 323.37557605 207.2879342 323.52026156 203.6640625 323.54296875 C202.68166847 323.54918495 202.68166847 323.54918495 201.6794281 323.55552673 C199.57789366 323.56512193 197.47655279 323.56519733 195.375 323.5625 C194.65923798 323.56256042 193.94347595 323.56262085 193.20602417 323.56268311 C180.79028811 323.54771495 168.69343904 323.10130398 156.5625 320.1875 C151.72361047 319.15626125 148.48952056 319.44366377 144.1015625 321.79296875 C143.20179688 322.37691406 142.30203125 322.96085937 141.375 323.5625 C117.26501422 338.0880223 86.32956693 341.54746207 58.75 341.5625 C57.53699219 341.57474609 56.32398438 341.58699219 55.07421875 341.59960938 C53.33591797 341.60250977 53.33591797 341.60250977 51.5625 341.60546875 C50.51707031 341.60957764 49.47164063 341.61368652 48.39453125 341.61791992 C45.75 341.375 45.75 341.375 42.75 339.375 C42 336.1875 42 336.1875 42.75 332.375 C44.80908724 330.35602485 47.01854505 328.77285352 49.3671875 327.1015625 C57.03382724 321.54639076 59.94112092 314.26149798 62.75 305.375 C62.75 304.715 62.75 304.055 62.75 303.375 C61.76 302.715 60.77 302.055 59.75 301.375 C60.08 299.395 60.41 297.415 60.75 295.375 C54.51051276 297.34536439 52.07025465 299.76165011 49 305.5625 C46.02777348 311.72309991 44.35362994 318.07302049 43.07910156 324.77612305 C42.51298687 327.66676983 42.05242692 329.96230483 40.29296875 332.36328125 C38.75 333.375 38.75 333.375 36.3125 333.375 C32.88849276 332.03880205 31.83429521 330.39559969 29.75 327.375 C28.7624286 324.89627973 27.93319983 322.54592468 27.1875 320 C26.99220703 319.38511719 26.79691406 318.77023437 26.59570312 318.13671875 C22.86289967 305.85616017 21.2297771 293.9399095 21.30395508 281.16870117 C21.31248427 278.94160802 21.28352394 276.71707822 21.25195312 274.49023438 C21.19745347 263.13978254 22.417866 251.58797285 27.75 241.375 C28.00581507 235.33289174 26.05103237 229.23226298 24.46875 223.46484375 C20.11261844 204.73821296 21.67120256 183.77388425 26.75 165.375 C26.95367187 164.62492676 27.15734375 163.87485352 27.3671875 163.10205078 C32.52919237 144.71240842 41.51242838 127.7543092 52.75 112.375 C53.38542725 111.49835693 53.38542725 111.49835693 54.03369141 110.60400391 C68.59389266 90.73225875 86.92633202 74.82291458 108.75 63.375 C96.01929471 42.75639374 78.69919688 30.46242229 55.09179688 24.86157227 C29.86708868 19.62045014 5.69415054 22.45108067 -19.36328125 26.88452148 C-48.25764162 31.93944063 -48.25764162 31.93944063 -57.25 26.375 C-59.83970227 22.49044659 -60.08106986 20.98366015 -59.25 16.375 C-54.0117697 9.62574172 -47.30845331 6.50364804 -39.25 4.375 C-37.3628125 3.818125 -37.3628125 3.818125 -35.4375 3.25 C-23.72369264 0.16276275 -12.03195838 -0.0017494 0 0 Z " fill="#050505" transform="translate(117.25,203.625)"/>
<path d="M0 0 C7.43911521 6.67851035 14.49062418 14.18163379 19.29492188 23.01196289 C19.29492188 23.67196289 19.29492188 24.33196289 19.29492188 25.01196289 C17.81518843 24.57638373 16.33617402 24.13836193 14.85742188 23.69946289 C14.03371094 23.45583008 13.21 23.21219727 12.36132812 22.96118164 C10.67623538 22.43955421 8.99428025 21.90504233 7.33227539 21.31396484 C-35.26074014 6.29484834 -87.56674464 15.37619225 -127.55126953 34.36352539 C-138.97550297 39.94333991 -138.97550297 39.94333991 -149.60742188 46.85571289 C-152.70507812 49.01196289 -152.70507812 49.01196289 -155.89257812 48.82446289 C-157.15070313 48.55633789 -158.40882813 48.28821289 -159.70507812 48.01196289 C-167.11709543 47.42547312 -172.77440977 47.21695443 -178.70507812 52.01196289 C-181.69466461 56.35168521 -182.33381572 59.80242281 -181.70507812 65.01196289 C-180.30419832 69.70799395 -178.39735981 73.03870233 -174.08007812 75.51196289 C-167.96570235 78.0690903 -161.61725811 77.81925619 -155.33007812 75.94946289 C-151.99568464 74.47800989 -149.96245007 72.61578122 -148.31445312 69.26196289 C-147.05306897 64.60454447 -147.42272169 59.78849252 -147.70507812 55.01196289 C-128.5160773 43.78909184 -109.24349455 35.55360341 -87.70507812 30.01196289 C-86.47144531 29.68325195 -85.2378125 29.35454102 -83.96679688 29.01586914 C-74.2040893 26.47489046 -64.8504028 25.79849147 -54.79199219 25.77172852 C-52.60637515 25.76207899 -50.42172312 25.73102094 -48.23632812 25.69946289 C-30.76205153 25.567568 -17.47672711 29.20555579 -4.63085938 41.37915039 C5.04489313 50.08603582 15.2536053 56.59472473 28.29492188 58.01196289 C29.98612492 97.52887337 16.26249307 133.00711112 -10.20507812 162.26196289 C-35.43625008 189.39414362 -72.48777568 205.90419034 -109.59432983 207.29562378 C-148.8840608 208.42247155 -148.8840608 208.42247155 -159.70507812 203.01196289 C-159.91225266 200.83071097 -160.01968985 198.63969907 -160.08007812 196.44946289 C-160.4784221 189.586765 -161.28320913 184.27449874 -166.46679688 179.33227539 C-169.34676453 177.6334463 -171.37644366 177.57862368 -174.70507812 177.57446289 C-175.73632812 177.55512695 -176.76757812 177.53579102 -177.83007812 177.51586914 C-181.3258201 178.11907462 -182.48689056 179.31921116 -184.70507812 182.01196289 C-183.71507812 182.34196289 -182.72507812 182.67196289 -181.70507812 183.01196289 C-187.18391582 186.20013739 -193.52244814 186.33000787 -199.70507812 187.01196289 C-200.70667969 187.16922852 -201.70828125 187.32649414 -202.74023438 187.48852539 C-222.13740113 189.2774604 -246.72324978 171.58510735 -261.88476562 160.57055664 C-265.39878638 157.56177063 -267.23808747 154.41293487 -268.70507812 150.01196289 C-268.83289599 147.33801325 -268.74899684 144.69100432 -268.70507812 142.01196289 C-268.04507813 141.68196289 -267.38507813 141.35196289 -266.70507812 141.01196289 C-265.38507813 142.33196289 -264.06507813 143.65196289 -262.70507812 145.01196289 C-261.81058891 140.09227222 -261.23476563 136.26612953 -263.01757812 131.51196289 C-266.82511927 127.97006415 -270.64765042 127.57175451 -275.70507812 127.01196289 C-278.94589446 115.45208675 -280.2456183 105.00895179 -279.70507812 93.01196289 C-279.10695313 93.79571289 -278.50882813 94.57946289 -277.89257812 95.38696289 C-274.99907677 98.89382991 -274.99907677 98.89382991 -270.79492188 100.19946289 C-260.08169118 99.2661869 -253.0304724 93.09137788 -246.21289062 85.18383789 C-232.10220452 67.68614582 -217.75404956 43.02052062 -217.45507812 20.07446289 C-217.41640625 18.29749023 -217.41640625 18.29749023 -217.37695312 16.48461914 C-217.83200786 11.66862321 -219.25519472 8.29614533 -222.89257812 5.07446289 C-227.74611766 3.24090351 -231.63036822 4.16120532 -236.26757812 6.06274414 C-240.83567065 8.25841957 -244.91459551 10.60052854 -248.70507812 14.01196289 C-247.04690993 9.93563275 -244.17141146 6.98710449 -241.20507812 3.82446289 C-240.66318848 3.24639893 -240.12129883 2.66833496 -239.56298828 2.07275391 C-232.13382826 -5.77422818 -224.41521361 -12.37794114 -215.45507812 -18.42553711 C-214.68599121 -18.94639893 -213.9169043 -19.46726074 -213.12451172 -20.00390625 C-209.08698244 -22.66299163 -205.43104665 -24.7312907 -200.70507812 -25.98803711 C-200.05430517 -23.94793956 -199.40967988 -21.90588042 -198.76757812 -19.86303711 C-198.40792969 -18.72608398 -198.04828125 -17.58913086 -197.67773438 -16.41772461 C-195.46543763 -8.61693528 -195.48778701 -1.04260096 -195.45507812 7.01196289 C-195.43445313 8.25075195 -195.41382813 9.48954102 -195.39257812 10.76586914 C-195.35740949 19.19754996 -195.58485323 28.06680141 -198.70507812 36.01196289 C-201.03631437 37.52150131 -202.76511316 38.01607914 -205.48242188 38.51977539 C-209.61703557 39.4353489 -211.69744118 42.57248154 -214.01757812 45.88696289 C-215.90976274 51.73553351 -214.5534717 56.44659502 -211.95117188 61.75024414 C-206.26301188 72.074522 -198.37411518 77.66447411 -187.20507812 81.44946289 C-175.16315652 84.74007044 -162.07409572 83.41662031 -150.83007812 77.82446289 C-149.79882812 77.22633789 -148.76757812 76.62821289 -147.70507812 76.01196289 C-147.70507812 75.68196289 -147.70507812 75.35196289 -147.70507812 75.01196289 C-148.67445313 75.63071289 -149.64382813 76.24946289 -150.64257812 76.88696289 C-160.53800463 82.41272581 -173.43725298 82.62009606 -184.34179688 80.20727539 C-194.07938754 76.86538037 -201.82305304 71.04043022 -206.83007812 61.94946289 C-208.84563368 57.30648669 -209.54134975 54.02959266 -208.70507812 49.01196289 C-207.2394744 46.64678171 -205.69504678 45.00193154 -203.70507812 43.01196289 C-203.70507812 45.8587507 -204.13588718 48.23715702 -204.70507812 51.01196289 C-204.70507812 51.67196289 -204.70507812 52.33196289 -204.70507812 53.01196289 C-202.33117933 53.32533126 -202.33117933 53.32533126 -199.70507812 53.01196289 C-190.71188817 44.45113784 -187.85358424 29.64002639 -185.70507812 18.01196289 C-185.51816406 17.24625977 -185.33125 16.48055664 -185.13867188 15.69165039 C-184.48578044 11.65666366 -184.51374203 7.65568942 -184.51757812 3.57446289 C-184.51878662 2.24137085 -184.51878662 2.24137085 -184.52001953 0.88134766 C-184.5886038 -6.56945902 -185.35632382 -13.65190727 -186.70507812 -20.98803711 C-186.99125 -22.62192383 -186.99125 -22.62192383 -187.28320312 -24.28881836 C-187.74038074 -26.85880964 -188.21329469 -29.42448515 -188.70507812 -31.98803711 C-129.42316364 -51.10184587 -48.32269793 -42.11687199 0 0 Z " fill="#FAFAFB" transform="translate(432.705078125,304.988037109375)"/>
<path d="M0 0 C0.91030472 -0.00988449 1.82060944 -0.01976898 2.75849915 -0.029953 C41.61711934 -0.36414666 78.76099495 3.88821357 114.4921875 20.23828125 C115.20503906 20.56296387 115.91789063 20.88764648 116.65234375 21.22216797 C138.43973067 31.29833287 156.7713974 43.32096824 165.39453125 66.72265625 C167.29189651 72.79962682 168.42865959 78.96490381 169.4921875 85.23828125 C169.66347168 86.17760498 169.83475586 87.11692871 170.01123047 88.0847168 C175.63770169 124.97666035 162.61235093 164.21593289 141.4921875 194.23828125 C138.62828369 198.03564176 135.64150359 201.67473079 132.4921875 205.23828125 C131.86957031 205.9446875 131.24695313 206.65109375 130.60546875 207.37890625 C117.8417157 220.97216946 96.54357113 233.59745955 77.765625 235.64453125 C69.26029121 235.87083725 69.26029121 235.87083725 66.6328125 233.70703125 C66.06820312 232.98 66.06820312 232.98 65.4921875 232.23828125 C66.85923828 232.14353516 66.85923828 232.14353516 68.25390625 232.046875 C76.61419966 231.25659851 84.2662011 229.64309687 92.2421875 226.98828125 C93.49841919 226.57533813 93.49841919 226.57533813 94.7800293 226.15405273 C101.65368464 223.77365579 108.0488248 220.5974988 114.4921875 217.23828125 C113.22028564 217.25922852 111.94838379 217.28017578 110.63793945 217.30175781 C86.27793085 217.66695192 62.483677 217.98917791 38.4921875 213.23828125 C37.36022949 213.01865723 36.22827148 212.7990332 35.06201172 212.57275391 C-6.91147806 204.25108405 -67.14755012 190.56433853 -96.5078125 156.23828125 C-97.65077437 153.86706186 -98.66446859 151.55199617 -99.6328125 149.11328125 C-107.79634352 129.67853676 -119.25295149 111.22358032 -133.01953125 95.24609375 C-134.79897971 92.84547299 -135.83363003 91.17245906 -136.5078125 88.23828125 C-135.74306223 85.54951642 -134.93486502 83.36224027 -133.7578125 80.86328125 C-133.27779785 79.81370239 -133.27779785 79.81370239 -132.78808594 78.74291992 C-115.2642919 41.78930781 -81.90742189 19.58640165 -44.5078125 6.23828125 C-43.41597656 5.83351563 -42.32414063 5.42875 -41.19921875 5.01171875 C-38.49347843 4.23416203 -36.30641748 4.07365743 -33.5078125 4.23828125 C-18.88706804 29.20334689 -18.88706804 29.20334689 -16.5078125 43.23828125 C-17.03688922 36.88306211 -18.16984512 31.31558796 -20.2578125 25.30078125 C-20.65444092 24.12999023 -20.65444092 24.12999023 -21.05908203 22.93554688 C-22.8651899 17.73447503 -24.95941066 12.81651855 -27.625 7.98828125 C-28.5078125 6.23828125 -28.5078125 6.23828125 -28.5078125 4.23828125 C-26.65484415 3.75450134 -24.80036809 3.27649489 -22.9453125 2.80078125 C-21.91277344 2.53394531 -20.88023437 2.26710938 -19.81640625 1.9921875 C-13.18778775 0.4817703 -6.76630993 0.05997394 0 0 Z " fill="#FBFBFC" transform="translate(705.5078125,366.76171875)"/>
<path d="M0 0 C7.43911521 6.67851035 14.49062418 14.18163379 19.29492188 23.01196289 C19.29492188 23.67196289 19.29492188 24.33196289 19.29492188 25.01196289 C17.81518843 24.57638373 16.33617402 24.13836193 14.85742188 23.69946289 C14.03371094 23.45583008 13.21 23.21219727 12.36132812 22.96118164 C10.67623538 22.43955421 8.99428025 21.90504233 7.33227539 21.31396484 C-35.26074014 6.29484834 -87.56674464 15.37619225 -127.55126953 34.36352539 C-138.97550297 39.94333991 -138.97550297 39.94333991 -149.60742188 46.85571289 C-152.70507812 49.01196289 -152.70507812 49.01196289 -155.89257812 48.82446289 C-157.15070313 48.55633789 -158.40882813 48.28821289 -159.70507812 48.01196289 C-167.11709543 47.42547312 -172.77440977 47.21695443 -178.70507812 52.01196289 C-181.69466461 56.35168521 -182.33381572 59.80242281 -181.70507812 65.01196289 C-180.30419832 69.70799395 -178.39735981 73.03870233 -174.08007812 75.51196289 C-167.92304431 78.08693057 -161.59854579 77.87087116 -155.33007812 75.76196289 C-152.12576048 74.40629004 -149.94607211 72.71983063 -147.70507812 70.01196289 C-146.71507812 71.00196289 -145.72507812 71.99196289 -144.70507812 73.01196289 C-154.33453677 81.10946221 -166.48111544 82.1491845 -178.65820312 81.25756836 C-188.88208099 80.03080057 -197.11260425 74.7317743 -203.70507812 67.01196289 C-207.65534408 61.23849726 -209.86976512 56.00008487 -208.70507812 49.01196289 C-207.2394744 46.64678171 -205.69504678 45.00193154 -203.70507812 43.01196289 C-203.70507812 45.8587507 -204.13588718 48.23715702 -204.70507812 51.01196289 C-204.70507812 51.67196289 -204.70507812 52.33196289 -204.70507812 53.01196289 C-202.33117933 53.32533126 -202.33117933 53.32533126 -199.70507812 53.01196289 C-190.71188817 44.45113784 -187.85358424 29.64002639 -185.70507812 18.01196289 C-185.51816406 17.24625977 -185.33125 16.48055664 -185.13867188 15.69165039 C-184.48578044 11.65666366 -184.51374203 7.65568942 -184.51757812 3.57446289 C-184.51838379 2.68573486 -184.51918945 1.79700684 -184.52001953 0.88134766 C-184.5886038 -6.56945902 -185.35632382 -13.65190727 -186.70507812 -20.98803711 C-186.99125 -22.62192383 -186.99125 -22.62192383 -187.28320312 -24.28881836 C-187.74038074 -26.85880964 -188.21329469 -29.42448515 -188.70507812 -31.98803711 C-129.42316364 -51.10184587 -48.32269793 -42.11687199 0 0 Z " fill="#FAFBFB" transform="translate(432.705078125,304.988037109375)"/>
<path d="M0 0 C8.65351307 7.20370983 12.40885001 17.04562346 13.6640625 28.0078125 C14.76421776 52.50074282 3.38368426 76.65275944 -12.828125 94.44921875 C-24.11900501 106.3990143 -39.21449391 116.998239 -56.10546875 118.17578125 C-64.07859062 118.332765 -70.57418611 117.87778174 -77.6875 113.9375 C-78.32042969 113.59847656 -78.95335937 113.25945312 -79.60546875 112.91015625 C-87.69516636 107.8920436 -92.58271954 98.98540986 -95.0234375 90.0078125 C-99.10741639 68.66324356 -94.41163839 47.95735441 -82.6875 29.9375 C-79.89196805 26.06187615 -76.90462317 22.46834972 -73.6875 18.9375 C-72.75164062 17.87982422 -72.75164062 17.87982422 -71.796875 16.80078125 C-54.74383596 -1.4345063 -22.87166354 -16.02906668 0 0 Z " fill="#020202" transform="translate(372.6875,365.0625)"/>
<path d="M0 0 C5.97030766 4.22087333 11.22933775 8.87565362 16.375 14.0625 C17.11959473 14.81273437 17.86418945 15.56296875 18.63134766 16.3359375 C24.67366968 22.51107226 30.10292288 28.86611149 35 36 C35.42941895 36.62277832 35.85883789 37.24555664 36.30126953 37.88720703 C52.48318064 61.60478353 83.84041393 108.81247225 79 139 C75.86049949 142.01250947 71.7947505 143.89889623 68 146 C67.32437012 146.38349609 66.64874023 146.76699219 65.95263672 147.16210938 C36.44977431 163.82410754 4.22129412 174.64995543 -29.37890625 165.484375 C-34.10993723 164.07020266 -38.54605552 162.11769948 -43 160 C-42.360625 159.38125 -41.72125 158.7625 -41.0625 158.125 C-10.69807029 127.50469027 5.46750644 87.46931889 5.375 44.4375 C5.37611786 43.6993103 5.37723572 42.96112061 5.37838745 42.20056152 C5.36966121 30.45027705 4.30633193 19.35446996 1.45751953 7.91601562 C0.83249951 5.29853582 0.40233629 2.65965461 0 0 Z " fill="#FAFAFA" transform="translate(878,428)"/>
<path d="M0 0 C18.20386803 2.60055258 37.14123925 15.42329473 48.25927734 29.60644531 C63.29571847 49.9396096 66.6606837 74.92078 63.67919922 99.66210938 C62.08134433 109.39290975 59.64659021 118.72578073 51.5625 125 C45.7015089 128.22189567 39.46223037 127.93872399 33 127 C18.08763801 122.60234114 5.09688437 112.41998278 -7 103 C-8.22589844 102.04867187 -8.22589844 102.04867187 -9.4765625 101.078125 C-14.51856021 97.10365123 -19.42813045 92.97790563 -24.3125 88.8125 C-24.89950684 88.31322998 -25.48651367 87.81395996 -26.09130859 87.29956055 C-29.54816865 84.33195332 -32.82028934 81.26323027 -36 78 C-34.38512831 74.2963269 -32.04653728 71.4937023 -29.5 68.375 C-19.94424332 56.25678619 -13.17325314 42.48201104 -8 28 C-7.77473633 27.37496582 -7.54947266 26.74993164 -7.31738281 26.10595703 C-4.25370481 17.53771063 -1.84866201 8.91265505 0 0 Z " fill="#FAFBFB" transform="translate(472,397)"/>
<path d="M0 0 C10.59585183 1.87906732 20.7319268 10.64313708 28 18 C28.70769531 18.68578125 29.41539062 19.3715625 30.14453125 20.078125 C40.24719882 30.50917756 45.42550163 43.88762066 45.36572266 58.29907227 C45.07853798 70.55448071 41.13671125 81.92108661 33.06640625 91.23046875 C30.13948715 93.7368853 28.3169503 93.75578962 24.5703125 93.5703125 C17.76714526 92.06079515 11.78125324 87.63514839 7.6875 82.0625 C3.80266721 75.53147677 1.46196405 68.15600996 -1 61 C-1.57427734 59.56140625 -1.57427734 59.56140625 -2.16015625 58.09375 C-3.29555383 53.91126216 -3.25226421 49.99943317 -3.1875 45.6875 C-3.18685547 44.88376953 -3.18621094 44.08003906 -3.18554688 43.25195312 C-3.15155527 38.55733487 -2.81592381 33.99026074 -2.24731445 29.33276367 C-1.69188035 24.09369866 -1.59563694 18.815 -1.39453125 13.55273438 C-1.20090573 8.95579752 -0.90077049 4.52637172 0 0 Z " fill="#F9F9FA" transform="translate(544,458)"/>
<path d="M0 0 C7.3579033 3.90938275 14.55040808 8.05485608 21.70947266 12.31469727 C25.85409507 14.7718198 30.03271022 17.09525951 34.3125 19.3125 C38.13485495 21.36846365 40.70279664 23.20462054 43 27 C43.35191406 27.56203125 43.70382812 28.1240625 44.06640625 28.703125 C48.4975722 39.60490566 43.7821659 54.16542439 41 65 C40.61288805 66.56468572 40.22746295 68.12978977 39.84375 69.6953125 C38.9151108 73.46862327 37.96417367 77.23561982 37 81 C32.77613532 80.24280611 31.02536328 78.54183485 28.390625 75.26171875 C23.17945365 66.78624625 23.38267982 55.65936651 23 46 C22.34 46 21.68 46 21 46 C19.14897283 52.33307408 17.62031591 58.42465139 17 65 C6.58471343 64.19882411 -0.87888642 56.98698302 -8 50 C-8.5671875 49.45730469 -9.134375 48.91460938 -9.71875 48.35546875 C-17.12964533 40.57008668 -21.83030078 30.35745119 -21.63671875 19.62109375 C-19.97501864 12.78059822 -13.72077909 9.42087578 -8.25 5.6875 C-7.06083984 4.86282227 -7.06083984 4.86282227 -5.84765625 4.02148438 C-3.90294598 2.67424533 -1.95376722 1.33405469 0 0 Z " fill="#F9F9FA" transform="translate(436,495)"/>
<path d="M0 0 C4.74384643 3.78132686 5.64967325 10.3997283 7.36376953 15.97021484 C7.95981051 17.87178225 8.60138455 19.75890841 9.24609375 21.64453125 C14.9605349 39.26241036 9.03285488 58.00891597 3 75 C-7.36291715 73.62337632 -18.66239501 64.08762647 -26 57 C-26 56.34 -26 55.68 -26 55 C-26.66 55 -27.32 55 -28 55 C-29.65625 53.2421875 -29.65625 53.2421875 -31.5 50.875 C-32.41265625 49.72644531 -32.41265625 49.72644531 -33.34375 48.5546875 C-37.37292448 42.33987592 -37.75699081 35.31707612 -38.625 28.125 C-38.7590625 27.05507813 -38.893125 25.98515625 -39.03125 24.8828125 C-39.3596222 22.25583491 -39.68236412 19.62829366 -40 17 C-38.75605469 16.89042969 -37.51210938 16.78085937 -36.23046875 16.66796875 C-18.57572165 15.71035166 -18.57572165 15.71035166 -4 7 C-2.48564146 4.71659418 -1.24858881 2.44915497 0 0 Z " fill="#F8F8F9" transform="translate(534,513)"/>
<path d="M0 0 C5.01145344 4.10674886 7.85120917 9.41370723 9.1640625 15.73046875 C9.65911097 23.09105782 6.40293324 29.15752763 1.80859375 34.70703125 C-5.13947378 41.60391596 -13.90744671 44.54339852 -23.625 44.8125 C-32.45850862 44.3836889 -39.30589933 41.89774603 -46.0625 36.0625 C-51.12779086 30.152994 -51.92786449 25.29253115 -51.71875 17.625 C-50.78255019 10.27943227 -46.09494361 5.56597595 -40.5625 0.9765625 C-28.41827551 -7.33042439 -12.3740047 -8.21057079 0 0 Z " fill="#F9F9FA" transform="translate(368.3125,372.5625)"/>
<path d="M0 0 C3.98087165 1.60177782 6.65493174 4.38230594 9.61328125 7.3828125 C10.14592087 7.91591034 10.67856049 8.44900818 11.2273407 8.9982605 C12.35339921 10.12733517 13.4770312 11.25883441 14.59838867 12.39257812 C16.29108744 14.10335871 17.99147489 15.80617492 19.69335938 17.5078125 C24.82383456 22.65526071 29.87052434 27.82393601 34.5925293 33.35400391 C36.57688211 35.67464687 38.66790291 37.89213036 40.75 40.125 C76.62613409 79.5290444 76.62613409 79.5290444 76 98 C66.8879679 99.05138832 59.79682333 94.99191124 52.69140625 89.5390625 C34.67440768 75.0443633 22.71460823 56.01486267 10.62988281 36.61083984 C7.60730671 31.76910396 4.55517345 26.94620884 1.5 22.125 C0.91234863 21.19147705 0.32469727 20.2579541 -0.28076172 19.29614258 C-2.55010538 15.71554235 -4.74174755 12.30810499 -7.46875 9.0546875 C-7.9740625 8.37664063 -8.479375 7.69859375 -9 7 C-8.67 6.01 -8.34 5.02 -8 4 C-5.69747517 2.93097061 -3.3627974 1.92824183 -1 1 C-0.67 0.67 -0.34 0.34 0 0 Z " fill="#F9F9FA" transform="translate(699,588)"/>
<path d="M0 0 C20.65999073 8.37733872 41.32546672 13.93666641 63.6875 14.25 C65.16150269 14.28359619 65.16150269 14.28359619 66.6652832 14.31787109 C73.01681 14.29750505 78.00478712 13.14338839 83.85961914 10.67211914 C86.25 9.8125 86.25 9.8125 90.25 9.8125 C90.58 13.1125 90.91 16.4125 91.25 19.8125 C56.1009349 38.12961843 14.2961362 29.13046544 -21.90429688 17.82763672 C-38.00554787 12.55695213 -38.00554787 12.55695213 -39.75 10.8125 C-39.875 7.625 -39.875 7.625 -38.75 3.8125 C-27.0517507 -7.67353616 -13.72636712 -5.80020484 0 0 Z " fill="#F7F7F8" transform="translate(310.75,554.1875)"/>
<path d="M0 0 C8.62665498 4.32840905 16.41149095 10.00737264 24.20288086 15.65454102 C36.35251334 25.10230623 36.35251334 25.10230623 50.5625 28.4375 C52.86480766 27.53918984 52.86480766 27.53918984 54.5625 26.4375 C57.26217727 30.48701591 57.09687659 33.68655815 56.5625 38.4375 C55.23424651 41.72317968 54.4608587 43.0066545 51.265625 44.5390625 C42.84158204 47.33896117 35.23087161 45.24549984 27.51367188 41.44042969 C25.15614575 40.22862822 22.81995084 38.98015409 20.484375 37.7265625 C19.57220215 37.23905518 18.6600293 36.75154785 17.72021484 36.24926758 C15.90534194 35.27145265 14.09789307 34.27969269 12.29931641 33.2722168 C6.47184538 30.10014216 1.13916807 28.34216624 -5.4375 27.4375 C2.32912843 36.61610856 10.05652403 45.65356892 20.76171875 51.4140625 C21.35597656 51.75179687 21.95023437 52.08953125 22.5625 52.4375 C22.5625 52.7675 22.5625 53.0975 22.5625 53.4375 C17.22819052 53.90063385 13.50147957 52.36009901 8.875 49.9375 C8.17238037 49.5758374 7.46976074 49.2141748 6.74584961 48.84155273 C-2.15727065 44.14632933 -16.86501188 36.29035848 -20.1796875 26.171875 C-20.26476562 25.59953125 -20.34984375 25.0271875 -20.4375 24.4375 C-19.32375 24.19 -18.21 23.9425 -17.0625 23.6875 C-13.38212512 22.85675542 -13.38212512 22.85675542 -12.2109375 20.359375 C-11.95570313 19.72515625 -11.70046875 19.0909375 -11.4375 18.4375 C-12.03288574 18.41244385 -12.62827148 18.3873877 -13.24169922 18.36157227 C-15.93219136 18.24572506 -18.6223234 18.12294804 -21.3125 18 C-22.24964844 17.96068359 -23.18679688 17.92136719 -24.15234375 17.88085938 C-25.04824219 17.83896484 -25.94414062 17.79707031 -26.8671875 17.75390625 C-27.69460449 17.71724854 -28.52202148 17.68059082 -29.37451172 17.64282227 C-31.4375 17.4375 -31.4375 17.4375 -33.4375 16.4375 C-32.94393174 12.15990841 -30.44202618 9.31316388 -27.4375 6.4375 C-18.86976119 -0.23085174 -10.78818828 -4.54853344 0 0 Z " fill="#F8F8F8" transform="translate(447.4375,568.5625)"/>
<path d="M0 0 C1.58889511 0.39492769 3.17439993 0.80498319 4.75 1.25 C2.92254172 5.24819602 0.47020696 8.83712919 -1.9375 12.5 C-5.9801421 18.68892996 -9.93169758 24.92761451 -13.82641602 31.21069336 C-23.40765354 46.66057568 -32.97220116 61.78191739 -45.25 75.25 C-45.70375 75.74902832 -46.1575 76.24805664 -46.625 76.76220703 C-54.28272919 85.06986423 -64.12142065 94.85310525 -76.125 95.375 C-76.82625 95.33375 -77.5275 95.2925 -78.25 95.25 C-78.60329839 89.22392938 -77.81030589 85.11834708 -74.9375 79.75 C-74.40443237 78.72459106 -74.40443237 78.72459106 -73.8605957 77.6784668 C-66.93220969 64.72088877 -58.03422269 53.15954307 -48.25 42.25 C-47.76917969 41.7127832 -47.28835938 41.17556641 -46.79296875 40.62207031 C-37.72754238 30.54605222 -28.38239759 20.63585345 -18.05859375 11.8359375 C-16.13013089 10.144888 -14.31158273 8.37791271 -12.5 6.5625 C-11.92378906 5.99273438 -11.34757812 5.42296875 -10.75390625 4.8359375 C-9.10039855 3.1678073 -9.10039855 3.1678073 -7.4375 0.6875 C-4.54853779 -1.21096088 -3.33461284 -0.65008581 0 0 Z " fill="#F9F9F9" transform="translate(414.25,591.75)"/>
<path d="M0 0 C0.99 0.33 1.98 0.66 3 1 C7.40212669 13.32999074 7.37906844 26.99225256 7.3125 39.9375 C7.31034485 40.69701965 7.3081897 41.45653931 7.30596924 42.23907471 C7.18512415 68.94723606 4.04854229 94.78781464 -10 118 C-10.99 117.67 -11.98 117.34 -13 117 C-13.9140625 114.9609375 -13.9140625 114.9609375 -14.625 112.375 C-14.98464844 111.11816406 -14.98464844 111.11816406 -15.3515625 109.8359375 C-20.97447709 85.24415443 -15.22231457 58.54820426 -10.5625 34.25 C-10.4174704 33.48677429 -10.2724408 32.72354858 -10.12301636 31.93719482 C-5.19179942 6.20328454 -5.19179942 6.20328454 0 0 Z " fill="#F6F6F7" transform="translate(556,571)"/>
<path d="M0 0 C-0.58169478 4.83181951 -2.7623188 8.64941586 -5.125 12.8125 C-5.77674194 13.97036011 -5.77674194 13.97036011 -6.44165039 15.15161133 C-15.67852512 31.3619995 -25.5133311 47.27953396 -37 62 C-37.75539062 62.97839844 -38.51078125 63.95679688 -39.2890625 64.96484375 C-48.22903865 76.2266865 -57.96002354 87.32000785 -72 92 C-74.33299825 92.03954234 -76.66708189 92.04401732 -79 92 C-78.59699137 73.86461181 -55.10918965 52.32817816 -44 39 C-43.27901123 38.13036621 -43.27901123 38.13036621 -42.54345703 37.24316406 C-33.80591101 26.71709033 -24.67034487 16.61542285 -15.0625 6.875 C-14.51867676 6.318125 -13.97485352 5.76125 -13.41455078 5.1875 C-8.87281582 0.63585786 -6.40636597 -1.7795461 0 0 Z " fill="#F9F9F9" transform="translate(267,569)"/>
<path d="M0 0 C2.20969031 1.21675396 4.14498125 2.60410647 6.12109375 4.16796875 C5.24609375 9.04296875 5.24609375 9.04296875 4.12109375 10.16796875 C2.63470383 10.32451902 1.14160248 10.41863818 -0.3515625 10.484375 C-1.25068359 10.52626953 -2.14980469 10.56816406 -3.07617188 10.61132812 C-4.49446289 10.67030273 -4.49446289 10.67030273 -5.94140625 10.73046875 C-7.36549805 10.79524414 -7.36549805 10.79524414 -8.81835938 10.86132812 C-11.17171978 10.96776151 -13.52518979 11.06977883 -15.87890625 11.16796875 C-15.87890625 12.48796875 -15.87890625 13.80796875 -15.87890625 15.16796875 C-13.95867922 16.94206683 -13.95867922 16.94206683 -11.87890625 18.16796875 C-17.99578534 22.70678321 -24.34349997 26.76423731 -30.87890625 30.66796875 C-31.63292725 31.1254248 -32.38694824 31.58288086 -33.16381836 32.05419922 C-33.87417236 32.47330566 -34.58452637 32.89241211 -35.31640625 33.32421875 C-35.95449219 33.70384766 -36.59257813 34.08347656 -37.25 34.47460938 C-37.78753906 34.70341797 -38.32507813 34.93222656 -38.87890625 35.16796875 C-39.86890625 34.67296875 -39.86890625 34.67296875 -40.87890625 34.16796875 C-35.59890625 30.20796875 -30.31890625 26.24796875 -24.87890625 22.16796875 C-28.11269103 22.97641494 -30.88397813 23.91183725 -33.94921875 25.1640625 C-34.92890625 25.55787109 -35.90859375 25.95167969 -36.91796875 26.35742188 C-38.95376546 27.18075991 -40.9876727 28.00878751 -43.01953125 28.84179688 C-57.20161505 34.51648184 -75.34696788 37.67391957 -90.19140625 32.48046875 C-91.77937554 31.76356999 -93.34444316 30.99320405 -94.87890625 30.16796875 C-96.18988281 29.48541016 -96.18988281 29.48541016 -97.52734375 28.7890625 C-99.6769709 27.62826384 -101.78668558 26.42846713 -103.87890625 25.16796875 C-102.87890625 23.16796875 -101.87890625 21.16796875 -100.87890625 19.16796875 C-99.83101929 19.20724487 -99.83101929 19.20724487 -98.76196289 19.24731445 C-74.96246896 20.01932727 -60.07234876 15.67475063 -38.921875 5.10546875 C-25.55492119 -1.48147627 -14.50313857 -6.38333755 0 0 Z " fill="#F8F8F8" transform="translate(687.87890625,573.83203125)"/>
<path d="M0 0 C-5.4067516 15.12284482 -20.57528813 25.12952301 -34.40234375 31.953125 C-45.58088923 37.13667588 -58.02840283 41.23248763 -70.4375 41.0625 C-71.73494141 41.04896484 -71.73494141 41.04896484 -73.05859375 41.03515625 C-73.69925781 41.02355469 -74.33992187 41.01195312 -75 41 C-72.55811014 39.37207342 -70.7699126 38.43567973 -68.078125 37.44921875 C-67.30637939 37.16506104 -66.53463379 36.88090332 -65.73950195 36.58813477 C-64.50719849 36.14232056 -64.50719849 36.14232056 -63.25 35.6875 C-62.40977295 35.38062256 -61.5695459 35.07374512 -60.70385742 34.75756836 C-53.18239475 32.02811423 -45.61081165 29.46867882 -38 27 C-44.88205246 27.43960247 -51.64179398 28.36190082 -58.4375 29.5 C-59.21851074 29.63059814 -59.99952148 29.76119629 -60.80419922 29.89575195 C-64.24324299 30.48382322 -67.62104168 31.12315491 -71 32 C-70.71125 31.29875 -70.4225 30.5975 -70.125 29.875 C-69.75375 28.92625 -69.3825 27.9775 -69 27 C-68.62875 26.13375 -68.2575 25.2675 -67.875 24.375 C-66.15438544 17.73834384 -66.13923047 11.27779979 -69 5 C-65.78993749 2.85995833 -65.02878421 2.75815509 -61.35180664 2.8046875 C-59.93871971 2.81459717 -59.93871971 2.81459717 -58.49708557 2.82470703 C-57.4783989 2.84130371 -56.45971222 2.85790039 -55.41015625 2.875 C-54.35525497 2.88257324 -53.3003537 2.89014648 -52.21348572 2.89794922 C-47.70064168 2.93057755 -43.18816013 2.98636842 -38.67553711 3.04101562 C-35.37876106 3.07754234 -32.0820472 3.10152292 -28.78515625 3.125 C-27.78468765 3.14159668 -26.78421906 3.15819336 -25.75343323 3.17529297 C-16.98982879 3.23495356 -8.42683354 0 0 0 Z " fill="#F7F7F7" transform="translate(256,494)"/>
<path d="M0 0 C0.86759639 5.72321342 1.72146235 11.44825982 2.56347656 17.17529297 C2.85086283 19.11723979 3.14178669 21.05866691 3.43652344 22.99951172 C5.11647625 34.07920052 6.51664669 44.76532639 6 56 C5.34 55.319375 4.68 54.63875 4 53.9375 C3.00483327 52.95342148 2.00426093 51.97479606 1 51 C0.44183594 50.45730469 -0.11632812 49.91460938 -0.69140625 49.35546875 C-16.3937047 34.83330129 -37.55635737 30.01883573 -58 26 C-55.14919236 24.09946158 -52.65021446 23.19332155 -49.40307617 22.19970703 C-33.79823361 17.40670748 -18.99894778 10.42974747 -5.3984375 1.3984375 C-3 0 -3 0 0 0 Z " fill="#F7F8F8" transform="translate(953,576)"/>
<path d="M0 0 C3.98254301 1.45953234 7.43155736 3.37864021 11.0625 5.5625 C59.14911397 33.39137608 116.36882547 41.42746346 170.91235352 44.67724609 C192.1723647 45.95533291 192.1723647 45.95533291 202 48 C202 48.33 202 48.66 202 49 C195.21080159 50.28007738 188.51007238 50.19752459 181.625 50.1875 C180.92758698 50.18722809 180.23017395 50.18695618 179.5116272 50.18667603 C157.29836082 50.14728242 134.8216549 49.39320652 113 45 C111.95424805 44.79358887 110.90849609 44.58717773 109.83105469 44.37451172 C75.00768179 37.42849076 37.27674986 28.115066 8 7 C7.20078125 6.43152344 6.4015625 5.86304688 5.578125 5.27734375 C1.67921558 2.43382878 1.67921558 2.43382878 0 1 C0 0.67 0 0.34 0 0 Z " fill="#0D0E0E" transform="translate(623,526)"/>
<path d="M0 0 C6.50192308 5.5125 6.50192308 5.5125 9.0234375 7.98046875 C16.56430999 15.24351962 25.25365889 20.43097147 34.1875 25.81420898 C36 27 36 27 38 29 C26.97364621 33.92717762 13.99856674 37.47986274 2 34 C1.94392578 32.53240234 1.94392578 32.53240234 1.88671875 31.03515625 C1.51407838 23.60426884 0.92849052 16.91781179 -2 10 C-2.391875 8.989375 -2.78375 7.97875 -3.1875 6.9375 C-3.455625 6.298125 -3.72375 5.65875 -4 5 C-2.68 3.35 -1.36 1.7 0 0 Z " fill="#F7F7F7" transform="translate(589,553)"/>
<path d="M0 0 C1.88457362 2.82686043 2.75015693 4.95482572 3.76953125 8.15625 C4.10146484 9.17976563 4.43339844 10.20328125 4.77539062 11.2578125 C5.45664093 13.38752156 6.13637611 15.51771598 6.81445312 17.6484375 C8.85432346 23.92857572 11.18671902 29.88658509 14.0534668 35.83789062 C15 38 15 38 15 40 C13.824375 40 12.64875 40 11.4375 40 C6.60159663 40.62481583 4.47676128 42.87819978 1.53515625 46.6171875 C-2.27561315 52.53212219 -4.23654074 59.24007285 -6 66 C-6.33 66 -6.66 66 -7 66 C-7.0752279 60.45396758 -7.12910056 54.90824442 -7.16479492 49.36181641 C-7.17970479 47.48253188 -7.20003987 45.60328103 -7.22631836 43.72412109 C-7.43333221 28.51875085 -7.1522813 13.81130181 0 0 Z " fill="#F6F6F7" transform="translate(159,452)"/>
<path d="M0 0 C0.33 0 0.66 0 1 0 C1.38245169 29.9405039 -19.3361061 61.9083874 -39 83 C-39.80824219 83.88945312 -40.61648438 84.77890625 -41.44921875 85.6953125 C-56.13692906 101.18417064 -74.54923827 111.27784139 -95 117 C-95.67724121 117.19609863 -96.35448242 117.39219727 -97.05224609 117.59423828 C-109.72821718 121.17206257 -121.88834592 121.48000986 -135 121 C-135 120.67 -135 120.34 -135 120 C-134.38705078 119.93006836 -133.77410156 119.86013672 -133.14257812 119.78808594 C-94.29989883 115.27048188 -58.99251644 102.28358132 -33.52539062 71.20019531 C-30.4740966 67.26449943 -27.71055445 63.17611643 -25 59 C-24.10087891 57.66195312 -24.10087891 57.66195312 -23.18359375 56.296875 C-12.44480067 39.25433564 -6.3177513 18.99076387 0 0 Z " fill="#181818" transform="translate(452,384)"/>
<path d="M0 0 C2.3125 0.5625 2.3125 0.5625 3.921875 2.12890625 C5.79166448 5.40103784 5.88759203 8.38519235 5.875 12.0625 C5.87330811 12.76866455 5.87161621 13.4748291 5.86987305 14.20239258 C5.58971948 22.49550025 2.17214789 29.47357969 -3.125 35.8125 C-6.57913954 38.17142456 -8.59914459 38.31960285 -12.6875 37.5625 C-16.24962568 32.94338844 -16.36321244 28.85381168 -16.234375 23.19140625 C-15.08290026 15.55054889 -11.51328432 7.80208091 -5.61328125 2.69140625 C-2.6875 0.5625 -2.6875 0.5625 0 0 Z " fill="#F8F9F9" transform="translate(206.6875,314.4375)"/>
<path d="M0 0 C0.66 0 1.32 0 2 0 C2.02505615 1.26779297 2.0501123 2.53558594 2.07592773 3.84179688 C2.19324323 9.72793184 2.31449237 15.61398139 2.4375 21.5 C2.45956512 22.55775635 2.48163025 23.6155127 2.50436401 24.70532227 C2.76855538 37.21204861 3.0893492 49.70382904 3.69287109 62.19921875 C4.147507 72.13069363 4.08804523 82.0606713 4 92 C1.36 91.34 -1.28 90.68 -4 90 C-4 61.29 -4 32.58 -4 3 C-2.68 2.67 -1.36 2.34 0 2 C0 1.34 0 0.68 0 0 Z " fill="#F2F2F2" transform="translate(547,695)"/>
<path d="M0 0 C2.71680335 2.03225448 4.03126986 4.30852771 5.734375 7.234375 C6.34796875 8.26046875 6.9615625 9.2865625 7.59375 10.34375 C9.09086119 13.72486629 9.39485788 15.83159695 8.984375 19.484375 C7.04334972 22.00051888 5.2635233 23.33084343 2.484375 24.859375 C-0.65592588 26.90057057 -2.10681133 29.30301888 -4.015625 32.484375 C-9.98127296 31.97666028 -14.65372399 30.09845372 -20.015625 27.484375 C-19.11010399 21.39064722 -15.91721762 16.94430889 -12.703125 11.796875 C-12.12111328 10.83458984 -11.53910156 9.87230469 -10.93945312 8.88085938 C-10.08577148 7.50317383 -10.08577148 7.50317383 -9.21484375 6.09765625 C-8.69752686 5.26016846 -8.18020996 4.42268066 -7.6472168 3.55981445 C-5.48794305 0.81314587 -3.54881693 -0.90783689 0 0 Z " fill="#F7F8F8" transform="translate(358.015625,694.515625)"/>
<path d="M0 0 C4.76835459 2.16660978 7.62715582 5.05006378 10.6171875 9.30859375 C12.75943514 15.73533666 12.85402599 24.40952062 10.1171875 30.68359375 C9.6221875 31.54984375 9.1271875 32.41609375 8.6171875 33.30859375 C6.12009539 32.93964438 4.89937598 32.61347836 3.16015625 30.734375 C-0.6553061 24.78577232 -3.72503508 18.66248967 -6.671875 12.25 C-8.43710488 9.21525548 -9.09488499 8.29989774 -12.3828125 7.30859375 C-14.73845846 6.86048238 -14.73845846 6.86048238 -17.1328125 6.68359375 C-18.33164062 6.57144531 -18.33164062 6.57144531 -19.5546875 6.45703125 C-20.15796875 6.40804687 -20.76125 6.3590625 -21.3828125 6.30859375 C-18.05068923 -2.47609486 -7.8126179 -2.26693995 0 0 Z " fill="#F7F8F8" transform="translate(571.3828125,557.69140625)"/>
<path d="M0 0 C3.56662107 3.19244431 5.75594698 6.77093455 8 10.9375 C8.78789496 12.37303725 9.57702304 13.80789819 10.3671875 15.2421875 C10.78838867 16.00885742 11.20958984 16.77552734 11.64355469 17.56542969 C13.07012997 20.12587043 14.5333497 22.66216476 16.0078125 25.1953125 C33.21174251 54.77764702 33.21174251 54.77764702 33 66 C29.43223192 65.4469695 28.09785657 64.37995701 25.98046875 61.4921875 C22.98606647 57.26866243 21.12396025 52.94714154 19.3125 48.125 C13.61296593 33.86915605 5.46637316 21.35862389 -4.1015625 9.40625 C-6 7 -6 7 -7 5 C-6.030625 4.360625 -5.06125 3.72125 -4.0625 3.0625 C-1.23963731 1.3034741 -1.23963731 1.3034741 0 0 Z " fill="#F3F4F4" transform="translate(779,691)"/>
<path d="M0 0 C2.97 0.99 5.94 1.98 9 3 C7.60629581 7.02224474 5.71000152 9.86974493 3.0625 13.1875 C-4.19763551 22.57273458 -10.08328346 32.88578065 -15.96875 43.16796875 C-16.45553223 44.01738037 -16.94231445 44.86679199 -17.44384766 45.74194336 C-18.37174442 47.3680579 -19.29367797 48.99759542 -20.20849609 50.63110352 C-22.78180503 55.16057749 -25.42437902 59.19408479 -29 63 C-29.66 63 -30.32 63 -31 63 C-30.54998154 56.2960485 -29.22976554 51.3057227 -26.25 45.3125 C-25.85949463 44.50796387 -25.46898926 43.70342773 -25.06665039 42.87451172 C-19.96098587 32.58834555 -13.98702346 22.78990641 -8 13 C-7.55076172 12.26265625 -7.10152344 11.5253125 -6.63867188 10.765625 C-4.4437276 7.16577898 -2.23341282 3.57615951 0 0 Z " fill="#F1F1F2" transform="translate(332,694)"/>
<path d="M0 0 C0 2.33333333 0 4.66666667 0 7 C0.99 7.66 1.98 8.32 3 9 C0.19794069 22.1500152 -5.83487738 30.55658492 -17 38 C-17.72965366 40.56282742 -17.72965366 40.56282742 -18 43 C-21.41561946 37.65827935 -19.25963031 31.83715283 -18 26 C-15.89526888 17.87172887 -13.05746472 7.52379311 -5.8359375 2.4921875 C-3.625 1.375 -3.625 1.375 0 0 Z " fill="#F5F5F5" transform="translate(178,498)"/>
<path d="M0 0 C4.21402514 1.54249222 8.00429986 3.63463935 11.875 5.875 C27.86962732 14.98806409 44.2544511 23.35773607 61 31 C60 34 60 34 58 35 C43.26143657 36.63761816 29.69206434 25.32058711 18.734375 16.671875 C14.78047038 13.49794336 10.8752988 10.26926803 7 7 C6.33226562 6.44248047 5.66453125 5.88496094 4.9765625 5.31054688 C4.01363281 4.4994043 4.01363281 4.4994043 3.03125 3.671875 C2.44923828 3.18299805 1.86722656 2.69412109 1.26757812 2.19042969 C0.84927734 1.79758789 0.43097656 1.40474609 0 1 C0 0.67 0 0.34 0 0 Z " fill="#0B0B0B" transform="translate(452,481)"/>
<path d="M0 0 C1.98 1.65 3.96 3.3 6 5 C3.58578555 9.17000678 0.76590822 12.32002418 -2.6875 15.6875 C-7.01203043 19.92351665 -10.86484184 24.34737317 -14.64453125 29.0703125 C-18.1553306 33.43697836 -21.78253424 37.70183335 -25.41796875 41.96484375 C-26.9966479 43.82056796 -28.56455811 45.68560939 -30.11328125 47.56640625 C-30.71527344 48.28699219 -31.31726563 49.00757813 -31.9375 49.75 C-32.69353516 50.67039062 -32.69353516 50.67039062 -33.46484375 51.609375 C-35.26339024 53.23859269 -36.63122309 53.61117269 -39 54 C-37.75831799 44.60348746 -29.28532816 37.04441114 -23.28857422 30.05761719 C-18.4207049 24.37312632 -13.81600199 18.494302 -9.22949219 12.58203125 C-8.08790655 11.11311247 -6.93879195 9.65005336 -5.7890625 8.1875 C-5.15742188 7.383125 -4.52578125 6.57875 -3.875 5.75 C-3.33617187 5.06421875 -2.79734375 4.3784375 -2.2421875 3.671875 C-0.93298268 2.01134465 -0.93298268 2.01134465 0 0 Z " fill="#EEEEEE" transform="translate(181,665)"/>
<path d="M0 0 C2.82834132 1.53380766 4.24200781 3.18376009 5.80078125 5.9765625 C6.05078125 9.2890625 6.05078125 9.2890625 5.80078125 11.9765625 C-2.23626497 14.65557791 -10.68413086 12.68944987 -18.12890625 9.02734375 C-20.53727098 7.56964931 -22.01026561 6.59320599 -22.8515625 3.84765625 C-22.96628906 3.23019531 -23.08101562 2.61273437 -23.19921875 1.9765625 C-14.9817669 -1.72707777 -8.62696043 -3.58479521 0 0 Z " fill="#F4F4F5" transform="translate(546.19921875,830.0234375)"/>
<path d="M0 0 C0.90105469 0.01804687 1.80210937 0.03609375 2.73046875 0.0546875 C3.41753906 0.07789063 4.10460937 0.10109375 4.8125 0.125 C4.8125 1.115 4.8125 2.105 4.8125 3.125 C4.1525 3.125 3.4925 3.125 2.8125 3.125 C2.379375 4.0221875 2.379375 4.0221875 1.9375 4.9375 C0.8125 7.125 0.8125 7.125 -1.1875 10.125 C-1.35463569 12.75031524 -1.35463569 12.75031524 -1.1875 15.125 C0.4625 15.455 2.1125 15.785 3.8125 16.125 C4.15023438 15.6196875 4.48796875 15.114375 4.8359375 14.59375 C5.50496094 13.61921875 5.50496094 13.61921875 6.1875 12.625 C6.62835938 11.9753125 7.06921875 11.325625 7.5234375 10.65625 C7.94882812 10.1509375 8.37421875 9.645625 8.8125 9.125 C9.4725 9.125 10.1325 9.125 10.8125 9.125 C10.53530685 12.72851091 10.26123426 15.41450409 8.3125 18.5 C4.63239334 20.89206933 1.17622222 21.45833989 -3.1875 21.125 C-6.5625 19.375 -6.5625 19.375 -9.1875 17.125 C-10.115625 16.4753125 -10.115625 16.4753125 -11.0625 15.8125 C-12.99831145 12.90878282 -12.59458089 10.49795594 -12.1875 7.125 C-8.908336 2.03664207 -6.07188353 -0.15771126 0 0 Z " fill="#B3B4B4" transform="translate(268.1875,356.875)"/>
<path d="M0 0 C1 1 1 1 1.39453125 3.265625 C0.81877923 7.25598552 -1.1793093 8.3279745 -4.3125 10.75 C-5.29863281 11.52859375 -6.28476562 12.3071875 -7.30078125 13.109375 C-11.56790976 16.09821754 -14.86542972 16.36032072 -20 16 C-22.4375 14.5 -22.4375 14.5 -24 13 C-22.6333155 9.69627206 -21.40792575 8.31305254 -18.26171875 6.640625 C-17.52373047 6.24746094 -16.78574219 5.85429688 -16.02539062 5.44921875 C-14.86813477 4.85560547 -14.86813477 4.85560547 -13.6875 4.25 C-12.92759766 3.83878906 -12.16769531 3.42757812 -11.38476562 3.00390625 C-4.30429808 -0.69934437 -4.30429808 -0.69934437 0 0 Z " fill="#F3F3F3" transform="translate(887,773)"/>
<path d="M0 0 C4.88258805 0.60465487 9.12317276 2.09882993 13.625 4 C19.18754877 6.37496297 19.18754877 6.37496297 25 8 C24.07739356 11.10331257 23.29502729 12.74711947 20.8125 14.875 C16.94729644 16.42108142 15.00643892 16.15439765 11 15 C6.28680452 12.20209182 1.86120266 8.72720439 -1 4 C-0.75 1.6875 -0.75 1.6875 0 0 Z " fill="#F4F4F5" transform="translate(241,771)"/>
<path d="M0 0 C4.29668184 0.47740909 8.46051003 1.07625363 12.68115234 2.01318359 C17.72684565 3.0346801 22.58933149 3.34198857 27.7265625 3.4140625 C28.60025482 3.43342865 29.47394714 3.4527948 30.37411499 3.4727478 C33.1243153 3.53182264 35.87455913 3.57863612 38.625 3.625 C40.50652718 3.66324638 42.3880381 3.70230181 44.26953125 3.7421875 C48.84621976 3.83746333 53.42298994 3.92175507 58 4 C50.07524225 9.28317183 39.41164864 8.36580156 30.25 8.375 C28.9815625 8.39949219 27.713125 8.42398438 26.40625 8.44921875 C17.20751602 8.47737814 9.64082525 6.94763366 1 4 C0.67 2.68 0.34 1.36 0 0 Z " fill="#090909" transform="translate(844,581)"/>
<path d="M0 0 C4.44751214 2.98676962 7.89102489 6.66278781 11 11 C10.67 11.66 10.34 12.32 10 13 C8.906875 12.95875 7.81375 12.9175 6.6875 12.875 C2.91107771 12.67925334 2.91107771 12.67925334 0 15 C-3.40913381 14.90786125 -5.6631044 13.76305136 -8.375 11.8125 C-11 9 -11 9 -11.0625 5.875 C-8.87837429 -0.03498722 -6.32912345 -1.03756122 0 0 Z " fill="#F5F5F6" transform="translate(490,576)"/>
<path d="M0 0 C1.94454224 1.44206599 3.71803593 2.97005168 5.484375 4.625 C6.97095777 6.09787746 6.97095777 6.09787746 9 7 C7.64284732 11.07145804 5.66107545 11.88784109 2 14 C-0.41015625 14.890625 -0.41015625 14.890625 -3 15 C-5.38671875 13.1640625 -5.38671875 13.1640625 -7.6875 10.625 C-10.51252883 7.37521128 -10.51252883 7.37521128 -14 5 C-13 2 -13 2 -9.8125 0.25 C-6.1378207 -1.14952144 -3.79769878 -1.34501832 0 0 Z " fill="#F2F2F3" transform="translate(413,552)"/>
<path d="M0 0 C0.886875 0.763125 1.77375 1.52625 2.6875 2.3125 C4.124979 3.54169123 5.56248324 4.77085293 7 6 C7.49854492 6.42877441 7.99708984 6.85754883 8.51074219 7.29931641 C10.19193626 8.74442151 11.87700187 10.18491847 13.5625 11.625 C14.10414795 12.09204346 14.6457959 12.55908691 15.20385742 13.0402832 C17.84856906 15.29339333 20.32491105 17.19670704 23.31640625 19.0078125 C26 21 26 21 27.0234375 23.578125 C27.19746094 24.90070312 27.19746094 24.90070312 27.375 26.25 C27.57222656 27.58804688 27.57222656 27.58804688 27.7734375 28.953125 C27.84820312 29.62859375 27.92296875 30.3040625 28 31 C15.4101934 23.38594417 7.03105332 15.95536676 0 3 C0 2.01 0 1.02 0 0 Z " fill="#101111" transform="translate(421,525)"/>
<path d="M0 0 C3.76769313 3.13974427 7.25233861 6.25741541 10.5625 9.875 C15.87727004 15.25109431 22.39109997 18.50165591 29 22 C30.41317272 22.75965016 31.82592596 23.52008113 33.23828125 24.28125 C36.81680797 26.20426471 40.40546987 28.10708217 44 30 C42 31 42 31 39.5234375 30.28515625 C5.74059233 17.16601166 5.74059233 17.16601166 -0.34375 7.96875 C-1.29222667 5.12332 -0.65322231 2.87417816 0 0 Z " fill="#0B0B0C" transform="translate(174,454)"/>
<path d="M0 0 C2.4375 0.125 2.4375 0.125 5 1 C7.13805294 4.94996222 7.21452792 8.3808681 7.125 12.8125 C7.10695313 13.97394531 7.08890625 15.13539063 7.0703125 16.33203125 C7.04710937 17.21246094 7.02390625 18.09289062 7 19 C6.01 18.67 5.02 18.34 4 18 C2.43881572 17.93259135 0.8749748 17.91485544 -0.6875 17.9375 C-1.49574219 17.94652344 -2.30398438 17.95554687 -3.13671875 17.96484375 C-3.75160156 17.97644531 -4.36648438 17.98804688 -5 18 C-5.55797683 11.30427803 -4.61897757 6.69734622 -1 1 C-0.67 0.67 -0.34 0.34 0 0 Z " fill="#F3F3F3" transform="translate(543,792)"/>
<path d="M0 0 C0.66 0.66 1.32 1.32 2 2 C-13.13359493 12.28338269 -30.88332261 23.73478414 -50 21 C-51.87890625 19.4765625 -51.87890625 19.4765625 -53 18 C-52.08863281 17.93683594 -51.17726563 17.87367188 -50.23828125 17.80859375 C-33.92312173 16.26636474 -18.27224553 11.06692139 -4 3 C-4.66 2.34 -5.32 1.68 -6 1 C-3.125 0.375 -3.125 0.375 0 0 Z " fill="#E2E2E2" transform="translate(824,581)"/>
<path d="M0 0 C4.48042346 4.10705484 7.78260702 8.47501138 9.78515625 14.2734375 C11.525082 19.14522961 13.08031878 21.51697716 17.75 23.9375 C22.08412973 25.80233327 26.38245616 27.05938922 31 28 C30.67 30.31 30.34 32.62 30 35 C19.97115325 31.42757222 11.77706192 24.68023801 5.5859375 16.1640625 C4.09429026 14.00262979 4.09429026 14.00262979 2.3515625 12.3984375 C-0.93632756 8.99651657 -0.07173721 4.37596969 0 0 Z " fill="#131414" transform="translate(502,546)"/>
<path d="M0 0 C2.44769705 2.37970547 4.76912033 4.69592656 6.8359375 7.41796875 C9.13671095 10.16311541 11.46494726 12.0463909 14.375 14.125 C15.29023437 14.78757812 16.20546875 15.45015625 17.1484375 16.1328125 C20.01051339 18.00688411 22.91217448 19.5335106 26 21 C26 21.66 26 22.32 26 23 C22.49193494 24.75403253 18.73606718 23.80284354 15 23 C8.59770822 19.73608654 3.7742057 14.49148338 1.125 7.8125 C0 4 0 4 0 0 Z " fill="#111212" transform="translate(549,521)"/>
<path d="M0 0 C2.91952568 0.01748219 5.72297885 0.13944633 8.625 0.375 C9.42679687 0.43171875 10.22859375 0.4884375 11.0546875 0.546875 C13.03715498 0.68847982 15.01869051 0.84302259 17 1 C16.26864196 4.2074015 15.23699549 6.4815454 13.4375 9.25 C12.98246094 9.95640625 12.52742188 10.6628125 12.05859375 11.390625 C11.70925781 11.92171875 11.35992187 12.4528125 11 13 C6.18087526 12.41586367 2.91786524 10.7877118 -1 8 C-2.0625 4.875 -2.0625 4.875 -2 2 C-1.34 1.34 -0.68 0.68 0 0 Z " fill="#F3F3F3" transform="translate(418,673)"/>
<path d="M0 0 C1.98 0.66 3.96 1.32 6 2 C5.45423097 10.10036134 4.45852964 18.01348818 3 26 C1.68 26.33 0.36 26.66 -1 27 C-1.02905924 23.2500163 -1.04681874 19.50006163 -1.0625 15.75 C-1.07087891 14.68652344 -1.07925781 13.62304688 -1.08789062 12.52734375 C-1.09111328 11.50253906 -1.09433594 10.47773437 -1.09765625 9.421875 C-1.10289307 8.47924805 -1.10812988 7.53662109 -1.11352539 6.56542969 C-1.00968082 4.21876563 -0.66706529 2.24355522 0 0 Z " fill="#EEEEEE" transform="translate(455,626)"/>
<path d="M0 0 C2.55762679 0.74597448 4.70073775 1.54850255 7 2.875 C5.44522891 6.88612541 2.85771211 8.94681964 -0.4375 11.625 C-1.40558594 12.42421875 -2.37367188 13.2234375 -3.37109375 14.046875 C-6 15.875 -6 15.875 -9 15.875 C-8.77065591 13.95575213 -8.51565657 12.0395594 -8.25 10.125 C-8.04117187 8.52398438 -8.04117187 8.52398438 -7.828125 6.890625 C-6.59252193 2.39116477 -4.85066644 -0.2021111 0 0 Z " fill="#EDEEEE" transform="translate(279,773.125)"/>
<path d="M0 0 C0.99 0.495 0.99 0.495 2 1 C-14.92672157 14.87686183 -47.47184438 22.97855253 -69 22 C-69 21.67 -69 21.34 -69 21 C-68.26289795 20.86537354 -67.5257959 20.73074707 -66.76635742 20.59204102 C-44.56084682 16.46034448 -22.28819066 11.37165442 -2.08984375 0.8984375 C-1.40019531 0.60195313 -0.71054687 0.30546875 0 0 Z " fill="#3C3D3D" transform="translate(921,713)"/>
<path d="M0 0 C5.59792221 -0.5831169 8.57865413 0.50979162 13.30078125 3.515625 C15.20352019 5.17778775 16.02700306 6.68851489 17 9 C10.25 13 10.25 13 8 13 C7.566875 12.2575 7.13375 11.515 6.6875 10.75 C5.13129477 7.84615331 5.13129477 7.84615331 2.3125 5.9375 C1.549375 5.298125 0.78625 4.65875 0 4 C0 2.68 0 1.36 0 0 Z " fill="#F3F3F3" transform="translate(72,715)"/>
<path d="M0 0 C1.76923828 0.04060547 1.76923828 0.04060547 3.57421875 0.08203125 C4.47785156 0.11683594 5.38148438 0.15164063 6.3125 0.1875 C3.84240154 4.53020997 1.43658172 7.27638349 -2.6875 10.1875 C-6.0625 11 -6.0625 11 -8.6875 11.1875 C-10.02876394 3.74958178 -10.02876394 3.74958178 -8.625 1.4375 C-5.74881909 -0.41810059 -3.38039967 -0.10040791 0 0 Z " fill="#F3F3F3" transform="translate(297.6875,763.8125)"/>
<path d="M0 0 C7.1760667 0.36488475 7.1760667 0.36488475 11 3.3125 C13 6 13 6 13 10 C12.01 10.495 12.01 10.495 11 11 C10.01 12.485 10.01 12.485 9 14 C7.2978302 12.4324482 5.61359446 10.84540216 3.9375 9.25 C2.99777344 8.36828125 2.05804687 7.4865625 1.08984375 6.578125 C-1 4 -1 4 -0.80859375 1.671875 C-0.54175781 1.12015625 -0.27492188 0.5684375 0 0 Z " fill="#F1F1F1" transform="translate(816,763)"/>
<path d="M0 0 C3.98254301 1.45953234 7.43155736 3.37864021 11.0625 5.5625 C17.91469888 9.59897209 25.05044825 12.85225139 32.33422852 16.02954102 C33.15592529 16.38846436 33.97762207 16.7473877 34.82421875 17.1171875 C35.55729248 17.43284668 36.29036621 17.74850586 37.0456543 18.07373047 C39 19 39 19 42 21 C41.01 21 40.02 21 39 21 C39 21.66 39 22.32 39 23 C33.25976456 21.34234125 28.1467102 18.69396822 22.875 15.9375 C21.9466333 15.4523291 21.0182666 14.9671582 20.06176758 14.46728516 C12.85766118 10.62182876 6.11695008 6.44573196 0 1 C0 0.67 0 0.34 0 0 Z " fill="#151617" transform="translate(623,526)"/>
<path d="M0 0 C1.86540627 4.70406799 3.36843005 8.94744036 4 14 C0.02191941 12.63628854 -2.67831674 10.85363833 -5.8125 8.0625 C-6.60269531 7.37285156 -7.39289062 6.68320312 -8.20703125 5.97265625 C-10 4 -10 4 -10 1 C-6.78548731 -0.60725635 -3.56387464 -0.05748185 0 0 Z " fill="#F0F0F0" transform="translate(842,777)"/>
<path d="M0 0 C0.80824219 0.11085938 1.61648438 0.22171875 2.44921875 0.3359375 C3.37154297 0.47902344 3.37154297 0.47902344 4.3125 0.625 C3.83833422 5.60374064 2.4025669 8.69218758 -0.6875 12.625 C-1.3475 12.625 -2.0075 12.625 -2.6875 12.625 C-3.0278125 11.449375 -3.0278125 11.449375 -3.375 10.25 C-4.46875 7.40625 -4.46875 7.40625 -7.3125 6.3125 C-8.09625 6.085625 -8.88 5.85875 -9.6875 5.625 C-7.55725527 0.70905062 -5.31135222 -0.76976119 0 0 Z " fill="#EDEDED" transform="translate(452.6875,659.375)"/>
<path d="M0 0 C1.79936435 4.6483579 0.1501068 7.79666213 -1.69921875 12.109375 C-3 14 -3 14 -7 15 C-7.33 10.71 -7.66 6.42 -8 2 C-4.77208445 -0.1519437 -3.71599191 -0.20086443 0 0 Z " fill="#F3F4F4" transform="translate(445,669)"/>
<path d="M0 0 C3.13582781 3.53009856 4.31373105 7.49780236 5.625 11.9375 C5.8415625 12.64068359 6.058125 13.34386719 6.28125 14.06835938 C7.89981309 19.39862733 9.14574307 24.23521426 9.0625 29.8125 C9.05347656 30.60269531 9.04445313 31.39289063 9.03515625 32.20703125 C9.02355469 32.79871094 9.01195312 33.39039063 9 34 C8.67 34 8.34 34 8 34 C7.78085937 33.01902344 7.56171875 32.03804688 7.3359375 31.02734375 C5.07040764 21.26364085 1.96522802 12.19932901 -2 3 C-1.34 3 -0.68 3 0 3 C0 2.01 0 1.02 0 0 Z " fill="#151616" transform="translate(681,381)"/>
<path d="M0 0 C5.23862804 2.03866644 10.2198377 4.49920908 15.25 7 C16.17296875 7.45117188 17.0959375 7.90234375 18.046875 8.3671875 C18.9234375 8.80289062 19.8 9.23859375 20.703125 9.6875 C21.90437012 10.28111328 21.90437012 10.28111328 23.12988281 10.88671875 C25 12 25 12 26 14 C19.76754873 12.64201177 14.28356392 10.54071432 8.5 7.875 C7.67757812 7.50246094 6.85515625 7.12992187 6.0078125 6.74609375 C4.00241007 5.83666707 1.99999101 4.92125066 0 4 C0 2.68 0 1.36 0 0 Z " fill="#1F1F20" transform="translate(192,471)"/>
<path d="M0 0 C2.4375 1 2.4375 1 3.8125 3.3125 C4.4375 6 4.4375 6 3.4375 10 C-0.1925 9.01 -3.8225 8.02 -7.5625 7 C-4.0625 0 -4.0625 0 0 0 Z " fill="#ECECEC" transform="translate(543.5625,816)"/>
<path d="M0 0 C3.99983819 0.45452707 7.28879943 1.51551977 11 3 C12.03125 3.165 13.0625 3.33 14.125 3.5 C17 4 17 4 20 6 C22.64017635 6.81779841 25.30270591 7.3809489 28 8 C28 8.33 28 8.66 28 9 C21.4 8.67 14.8 8.34 8 8 C8.33 7.01 8.66 6.02 9 5 C8.0925 4.896875 7.185 4.79375 6.25 4.6875 C2.98038425 3.99585051 1.46282263 3.17865079 -1 1 C-0.67 0.67 -0.34 0.34 0 0 Z " fill="#212222" transform="translate(339,723)"/>
<path d="M0 0 C0.66 0.33 1.32 0.66 2 1 C-5.05133569 8.25280242 -16.0833375 10.77426036 -25.9921875 11.09765625 C-27.41917969 11.08025391 -27.41917969 11.08025391 -28.875 11.0625 C-29.84179688 11.05347656 -30.80859375 11.04445313 -31.8046875 11.03515625 C-32.52914062 11.02355469 -33.25359375 11.01195312 -34 11 C-33.360625 10.690625 -32.72125 10.38125 -32.0625 10.0625 C-30.06389179 9.1654837 -30.06389179 9.1654837 -29 8 C-26.99043085 7.78679991 -24.98005302 7.57928876 -22.96679688 7.40429688 C-10.43370209 6.44085696 -10.43370209 6.44085696 0 0 Z " fill="#272828" transform="translate(286,378)"/>
<path d="M0 0 C6.625 -0.25 6.625 -0.25 10 2 C9 5 9 5 7.29296875 5.94921875 C6.59816406 6.19285156 5.90335938 6.43648437 5.1875 6.6875 C4.50042969 6.93886719 3.81335938 7.19023438 3.10546875 7.44921875 C1 8 1 8 -3 8 C-1.125 2.25 -1.125 2.25 0 0 Z " fill="#EFEFEF" transform="translate(107,725)"/>
<path d="M0 0 C10.56 0 21.12 0 32 0 C24.98665543 4.67556305 16.15696294 4.27913561 8 4 C8 3.67 8 3.34 8 3 C9.65 3 11.3 3 13 3 C13 2.34 13 1.68 13 1 C8.71 1 4.42 1 0 1 C0 0.67 0 0.34 0 0 Z " fill="#414142" transform="translate(870,585)"/>
<path d="M0 0 C0 0.99 0 1.98 0 3 C-3.98440068 4.87281755 -7.23607398 5.29736577 -11.625 5.3125 C-12.75164063 5.32925781 -13.87828125 5.34601562 -15.0390625 5.36328125 C-18 5 -18 5 -19.8984375 3.48046875 C-20.26195312 2.99191406 -20.62546875 2.50335937 -21 2 C-18.43795456 1.66280953 -15.87545682 1.33012847 -13.3125 1 C-12.59126953 0.90460937 -11.87003906 0.80921875 -11.12695312 0.7109375 C-7.39007129 0.23316265 -3.77708469 -0.11919794 0 0 Z " fill="#F1F1F2" transform="translate(792,597)"/>
<path d="M0 0 C0.66 0.33 1.32 0.66 2 1 C1.28972656 1.67546875 0.57945312 2.3509375 -0.15234375 3.046875 C-1.07144531 3.93890625 -1.99054688 4.8309375 -2.9375 5.75 C-3.85402344 6.63171875 -4.77054687 7.5134375 -5.71484375 8.421875 C-7.97707193 10.97413243 -8.27039292 11.8731125 -9 15 C-10.84765625 16.703125 -10.84765625 16.703125 -13.0625 18.25 C-13.79597656 18.77078125 -14.52945312 19.2915625 -15.28515625 19.828125 C-15.85105469 20.21484375 -16.41695313 20.6015625 -17 21 C-17.66 20.34 -18.32 19.68 -19 19 C-19 18.34 -19 17.68 -19 17 C-17.3828125 15.625 -17.3828125 15.625 -15.125 14 C-9.57317935 9.82510148 -4.81199381 4.9928203 0 0 Z " fill="#1E1F1E" transform="translate(414,460)"/>
<path d="M0 0 C2.33944736 0.28730055 4.6739143 0.61936779 7 1 C7.33 2.65 7.66 4.3 8 6 C2.375 9 2.375 9 -1 9 C-1.09765625 2.84765625 -1.09765625 2.84765625 -1 1 C-0.67 0.67 -0.34 0.34 0 0 Z " fill="#F4F4F4" transform="translate(126,719)"/>
<path d="M0 0 C0.66 0 1.32 0 2 0 C2.33 0.99 2.66 1.98 3 3 C0.62294981 7.29697535 -2.03381225 10.13553107 -6 13 C-8.475 12.01 -8.475 12.01 -11 11 C-10.443125 10.5875 -9.88625 10.175 -9.3125 9.75 C-8.549375 9.1725 -7.78625 8.595 -7 8 C-6.13375 7.360625 -5.2675 6.72125 -4.375 6.0625 C-2.10772409 4.09354987 -1.08240104 2.75520264 0 0 Z " fill="#151616" transform="translate(530,513)"/>
<path d="M0 0 C0.33 0 0.66 0 1 0 C0.88485851 2.04224637 0.75742674 4.08380159 0.625 6.125 C0.55539062 7.26195312 0.48578125 8.39890625 0.4140625 9.5703125 C-0.00291232 13.02412279 -0.54480663 15.83612796 -2 19 C-4.125 19.875 -4.125 19.875 -6 20 C-4.63125844 13.04223041 -2.5466871 6.61396893 0 0 Z " fill="#222122" transform="translate(452,384)"/>
<path d="M0 0 C1.77178053 0.956581 3.54239076 1.91532988 5.3125 2.875 C6.79169922 3.67550781 6.79169922 3.67550781 8.30078125 4.4921875 C11 6 11 6 14 8 C13.67 9.32 13.34 10.64 13 12 C10.82174476 10.76725115 8.65895457 9.51574883 6.5 8.25 C5.87996094 7.90195312 5.25992188 7.55390625 4.62109375 7.1953125 C2.84375 6.140625 2.84375 6.140625 0 4 C0 2.68 0 1.36 0 0 Z " fill="#EDEDED" transform="translate(178,466)"/>
<path d="M0 0 C0.66 0 1.32 0 2 0 C1.72280685 3.60351091 1.44873426 6.28950409 -0.5 9.375 C-4.13808764 11.73975697 -7.73467611 11.8177212 -12 12 C-12 11.67 -12 11.34 -12 11 C-10.35 11 -8.7 11 -7 11 C-6.773125 10.484375 -6.54625 9.96875 -6.3125 9.4375 C-4.51782382 6.10452995 -2.50034985 2.85296329 0 0 Z " fill="#626364" transform="translate(277,366)"/>
<path d="M0 0 C1.32 0 2.64 0 4 0 C5.33333333 4 6.66666667 8 8 12 C3.70761377 10.34908222 1.1206085 7.26245434 -2 4 C-1.34 2.68 -0.68 1.36 0 0 Z " fill="#F3F3F3" transform="translate(853,782)"/>
<path d="M0 0 C0.33 0.99 0.66 1.98 1 3 C-0.76695859 4.96195402 -2.53831789 6.91959627 -4.3125 8.875 C-4.81201172 9.43058594 -5.31152344 9.98617188 -5.82617188 10.55859375 C-8.1087156 13.06788023 -10.16360168 15.10906778 -13 17 C-13 14 -13 14 -11.06640625 11.84375 C-10.24011719 11.0703125 -9.41382813 10.296875 -8.5625 9.5 C-5.0051262 6.26041979 -5.0051262 6.26041979 -3 2 C-2.01 1.34 -1.02 0.68 0 0 Z " fill="#121312" transform="translate(419,456)"/>
<path d="M0 0 C4.95 1.32 9.9 2.64 15 4 C14.67 4.66 14.34 5.32 14 6 C8.5610835 6.21755666 4.12919186 6.10428384 -1 4 C-0.67 2.68 -0.34 1.36 0 0 Z " fill="#141515" transform="translate(242,382)"/>
<path d="M0 0 C2 1 2 1 2 1 Z M-2 1 C-1.34 1.33 -0.68 1.66 0 2 C-3.96 5.96 -7.92 9.92 -12 14 C-11.67 14.66 -11.34 15.32 -11 16 C-15.5 19 -15.5 19 -20 22 C-18.30636743 17.734555 -15.22622172 14.7797093 -12.125 11.5 C-11.59519531 10.93152344 -11.06539062 10.36304688 -10.51953125 9.77734375 C-7.73245525 6.79662476 -4.90692035 3.86479107 -2 1 Z " fill="#D6D7D7" transform="translate(204,297)"/>
<path d="M0 0 C-1.09577229 3.28731688 -1.77804601 3.88003756 -4.375 6 C-9.90657712 10.67669702 -14.9246533 15.84068616 -20 21 C-20.66 20.67 -21.32 20.34 -22 20 C-19.19469153 17.1453424 -16.38292304 14.29722769 -13.56494141 11.45507812 C-12.60675044 10.48681462 -11.65036018 9.51676574 -10.69580078 8.54492188 C-9.3253618 7.1502903 -7.94793633 5.76253479 -6.5703125 4.375 C-5.74289551 3.53710938 -4.91547852 2.69921875 -4.06298828 1.8359375 C-2 0 -2 0 0 0 Z " fill="#DADADA" transform="translate(392,609)"/>
<path d="M0 0 C1.18771723 3.42943519 0.80226223 5.37784675 -0.4375 8.75 C-0.72496094 9.54921875 -1.01242187 10.3484375 -1.30859375 11.171875 C-1.53675781 11.77515625 -1.76492188 12.3784375 -2 13 C-2.99 12.67 -3.98 12.34 -5 12 C-4.54177532 8.53058454 -4.10868317 5.32604951 -3 2 C-2.01 1.34 -1.02 0.68 0 0 Z " fill="#121111" transform="translate(448,402)"/>
<path d="M0 0 C1.35622245 0.96873032 2.69417053 1.96434215 4 3 C-1.70690634 3.99250545 -7.21408489 4.10477512 -13 4 C-4.66666667 -1.55555556 -4.66666667 -1.55555556 0 0 Z " fill="#E1E1E2" transform="translate(194,531)"/>
<path d="M0 0 C0.66 0.66 1.32 1.32 2 2 C-1.96 4.64 -5.92 7.28 -10 10 C-11.32 9.34 -12.64 8.68 -14 8 C-10.7 6.35 -7.4 4.7 -4 3 C-4.66 2.34 -5.32 1.68 -6 1 C-3.125 0.375 -3.125 0.375 0 0 Z " fill="#CACBCA" transform="translate(824,581)"/>
<path d="M0 0 C1.32 0.66 2.64 1.32 4 2 C1.00931675 5.33576209 -1.80831589 7.3746531 -6 9 C-8.875 8.6875 -8.875 8.6875 -11 8 C-10.443125 7.731875 -9.88625 7.46375 -9.3125 7.1875 C-3.92804958 4.46422643 -3.92804958 4.46422643 0 0 Z " fill="#DDDEDD" transform="translate(284,375)"/>
<path d="M0 0 C0.721875 0.103125 1.44375 0.20625 2.1875 0.3125 C2.5175 0.9725 2.8475 1.6325 3.1875 2.3125 C2.1875 3.8125 2.1875 3.8125 0.1875 5.3125 C-2.53096235 5.58595479 -5.06927199 5.44741285 -7.8125 5.3125 C-3.50480769 0.38942308 -3.50480769 0.38942308 0 0 Z " fill="#E6E7E7" transform="translate(98.8125,724.6875)"/>
<path d="M0 0 C4.455 2.97 4.455 2.97 9 6 C5 8 5 8 1 9 C0.67 6.03 0.34 3.06 0 0 Z " fill="#EBEBEB" transform="translate(180,486)"/>
<path d="M0 0 C0 0.66 0 1.32 0 2 C-1.73548169 3.44526736 -3.53975963 4.8087222 -5.375 6.125 C-6.37273437 6.84945312 -7.37046875 7.57390625 -8.3984375 8.3203125 C-11 10 -11 10 -13 10 C-12.38708324 6.9354162 -11.5024152 5.35140572 -8.93359375 3.5546875 C-2.60625 0 -2.60625 0 0 0 Z " fill="#DFE0E0" transform="translate(406,587)"/>
<path d="M0 0 C-3.08566284 2.05710856 -5.36985312 2.78346093 -8.9375 3.6875 C-9.97777344 3.95949219 -11.01804687 4.23148438 -12.08984375 4.51171875 C-14.8705956 4.97828785 -16.38480882 4.93894816 -19 4 C-16.58732675 3.132758 -14.17095531 2.28103064 -11.75 1.4375 C-11.06808594 1.19064453 -10.38617187 0.94378906 -9.68359375 0.68945312 C-3.41657839 -1.47053761 -3.41657839 -1.47053761 0 0 Z " fill="#2B2D2C" transform="translate(898,725)"/>
<path d="M0 0 C4.77609498 1.64178265 8.79382904 4.26546702 13 7 C12.67 7.99 12.34 8.98 12 10 C8.78727751 8.56006357 6.3793336 6.76981628 3.75 4.4375 C3.04359375 3.81746094 2.3371875 3.19742187 1.609375 2.55859375 C1.07828125 2.04425781 0.5471875 1.52992188 0 1 C0 0.67 0 0.34 0 0 Z " fill="#262727" transform="translate(452,481)"/>
<path d="M0 0 C2 0.8125 2 0.8125 5 2.8125 C4.67 3.4725 4.34 4.1325 4 4.8125 C0.625 4.9375 0.625 4.9375 -3 4.8125 C-3.66 4.1525 -4.32 3.4925 -5 2.8125 C-2.55813953 -0.23982558 -2.55813953 -0.23982558 0 0 Z " fill="#969798" transform="translate(266,372.1875)"/>
<path d="M0 0 C3.69876091 1.37287342 6.9514476 3.06355453 10.3125 5.125 C11.19550781 5.66382813 12.07851563 6.20265625 12.98828125 6.7578125 C13.65214844 7.16773438 14.31601562 7.57765625 15 8 C14.67 8.99 14.34 9.98 14 11 C11.6638026 9.35810616 9.33099647 7.7117475 7 6.0625 C6.33226562 5.59392578 5.66453125 5.12535156 4.9765625 4.64257812 C3.29970233 3.45337627 1.64761213 2.22940446 0 1 C0 0.67 0 0.34 0 0 Z " fill="#393A3B" transform="translate(623,526)"/>
<path d="M0 0 C3.24961394 5.84930509 3.12793379 11.4753767 3 18 C2.67 18 2.34 18 2 18 C1.46969932 15.56421213 0.95047688 13.12694025 0.4375 10.6875 C0.21030273 9.65206055 0.21030273 9.65206055 -0.02148438 8.59570312 C-0.71761569 5.24455934 -1.10155309 3.30465928 0 0 Z " fill="#484948" transform="translate(687,397)"/>
<path d="M0 0 C0 5.42119013 -1.44653511 9.22613086 -4 14 C-4.33 14 -4.66 14 -5 14 C-5.602537 7.01057082 -5.602537 7.01057082 -3.88671875 4.1328125 C-2.66254412 2.69138998 -1.33721771 1.33721771 0 0 Z " fill="#B7B8B7" transform="translate(229,348)"/>
<path d="M0 0 C3.66881155 0.70554068 6.70450534 2.27735506 10 4 C10 4.33 10 4.66 10 5 C5.78121808 5.19622241 2.82989106 4.80230168 -1 3 C-0.67 2.01 -0.34 1.02 0 0 Z " fill="#EAEBEB" transform="translate(460,617)"/>
<path d="M0 0 C0.33 0.99 0.66 1.98 1 3 C-0.8125 6.1875 -0.8125 6.1875 -3 9 C-3.66 9 -4.32 9 -5 9 C-4.5206753 4.68607774 -3.2542015 2.83430453 0 0 Z " fill="#171616" transform="translate(435,432)"/>
<path d="M0 0 C0.33 0 0.66 0 1 0 C0.67 4.29 0.34 8.58 0 13 C-0.99 12.01 -1.98 11.02 -3 10 C-2.01 6.7 -1.02 3.4 0 0 Z " fill="#2B2B2B" transform="translate(452,384)"/>
<path d="M0 0 C0.33 0.66 0.66 1.32 1 2 C-3.29 2 -7.58 2 -12 2 C-8.04624984 -0.63583344 -4.57373889 -1.79682599 0 0 Z " fill="#242425" transform="translate(344,502)"/>
<path d="M0 0 C0.66 0 1.32 0 2 0 C2.33 0.99 2.66 1.98 3 3 C-0.83325617 5.70582788 -3.32538149 6.32613618 -8 6 C-8 5.67 -8 5.34 -8 5 C-6.35 5 -4.7 5 -3 5 C-2.690625 4.360625 -2.38125 3.72125 -2.0625 3.0625 C-1 1 -1 1 0 0 Z " fill="#6B6C6D" transform="translate(273,372)"/>
<path d="M0 0 C0.66 0.33 1.32 0.66 2 1 C-2.455 3.97 -2.455 3.97 -7 7 C-7.66 6.67 -8.32 6.34 -9 6 C-9 5.34 -9 4.68 -9 4 C-7.54618103 3.30300448 -6.08677047 2.61766134 -4.625 1.9375 C-3.40683594 1.36322266 -3.40683594 1.36322266 -2.1640625 0.77734375 C-1.44992187 0.52082031 -0.73578125 0.26429688 0 0 Z " fill="#2A2B2B" transform="translate(921,713)"/>
<path d="M0 0 C1.65 0 3.3 0 5 0 C4.67 2.31 4.34 4.62 4 7 C2.68 6.67 1.36 6.34 0 6 C1 3 1 3 2 1 C1.34 0.67 0.68 0.34 0 0 Z " fill="#232424" transform="translate(528,574)"/>
<path d="M0 0 C0 0.66 0 1.32 0 2 C-2.8125 3.5625 -2.8125 3.5625 -6 5 C-6.99 4.67 -7.98 4.34 -9 4 C-6.25137935 -0.12293098 -4.89482776 0 0 0 Z " fill="#EAEAEA" transform="translate(812,590)"/>
<path d="M0 0 C5.75 1.875 5.75 1.875 8 3 C7.67 3.99 7.34 4.98 7 6 C3.535 4.02 3.535 4.02 0 2 C0 1.34 0 0.68 0 0 Z " fill="#1C1C1E" transform="translate(638,535)"/>
<path d="M0 0 C0.66 0 1.32 0 2 0 C2.33 2.97 2.66 5.94 3 9 C2.34 8.67 1.68 8.34 1 8 C0.26924352 5.6859378 -0.40138258 3.35171131 -1 1 C-0.67 0.67 -0.34 0.34 0 0 Z " fill="#1D1E1E" transform="translate(684,391)"/>
<path d="M0 0 C3.95820859 0.56545837 6.6659053 1.80902348 10 4 C8 5 8 5 6.0546875 4.44140625 C5.33539063 4.15136719 4.61609375 3.86132812 3.875 3.5625 C3.15054688 3.27503906 2.42609375 2.98757813 1.6796875 2.69140625 C0.84824219 2.34916016 0.84824219 2.34916016 0 2 C0 1.34 0 0.68 0 0 Z " fill="#353536" transform="translate(208,480)"/>
<path d="M0 0 C2 1 2 1 4 4 C1.36 4 -1.28 4 -4 4 C-2.68 2.68 -1.36 1.36 0 0 Z " fill="#DBDCDC" transform="translate(95,726)"/>
<path d="M0 0 C0.66 0 1.32 0 2 0 C2 0.99 2 1.98 2 3 C0.02 3.66 -1.96 4.32 -4 5 C-2.71937515 3.2925002 -1.38232443 1.62626404 0 0 Z M-6 5 C-5.34 5.33 -4.68 5.66 -4 6 C-4.66 6.66 -5.32 7.32 -6 8 C-6 7.01 -6 6.02 -6 5 Z " fill="#E2E2E2" transform="translate(842,581)"/>
<path d="M0 0 C0.99 0.66 1.98 1.32 3 2 C1.68 3.65 0.36 5.3 -1 7 C-1 6.34 -1 5.68 -1 5 C-1.66 4.67 -2.32 4.34 -3 4 C-2.01 2.68 -1.02 1.36 0 0 Z " fill="#222221" transform="translate(429,440)"/>
</svg>
